<svg xmlns="http://www.w3.org/2000/svg" xmlns:xlink="http://www.w3.org/1999/xlink" viewBox="0 0 135 40"><defs><linearGradient id="linear-gradient" x1="28.95" x2="33.32" y1="13.02" y2="13.02" gradientUnits="userSpaceOnUse"><stop offset="0" stop-color="#1767e6"/><stop offset=".64" stop-color="#14bbf2"/></linearGradient><linearGradient xlink:href="#linear-gradient" id="linear-gradient-2" x1="24.69" x2="36.48" y1="31.03" y2="4.89"/><style>.cls-2{fill:#fff}</style></defs><g id="Layer_2" data-name="Layer 2"><g id="Layer_1-2" data-name="Layer 1"><path d="M130.2 40H4.73A4.74 4.74 0 0 1 0 35.27V4.73A4.73 4.73 0 0 1 4.73 0H130.2a4.8 4.8 0 0 1 4.8 4.73v30.54a4.81 4.81 0 0 1-4.8 4.73Z" style="fill:#a6a6a6"/><path d="M134 35.27a3.82 3.82 0 0 1-3.83 3.83H4.73a3.83 3.83 0 0 1-3.84-3.83V4.73A3.84 3.84 0 0 1 4.73.9H130.2a3.83 3.83 0 0 1 3.8 3.83v30.54Z"/><rect width="24" height="24" x="16.93" y="8" class="cls-2" rx="5.34" ry="5.34"/><path id="形状_1" d="M32.18 14a4.75 4.75 0 0 0 1.12-3.44 4.88 4.88 0 0 0-3.18 1.63A4.57 4.57 0 0 0 29 15.5a4 4 0 0 0 3.18-1.5Z" data-name="形状 1" style="fill:url(#linear-gradient)"/><path d="M30.73 18.19s-1.77 1.59-1.8 1.59-1.84-1.62-1.84-1.62A8.91 8.91 0 0 0 21 15.45h-4.07v11.21A5.34 5.34 0 0 0 22.27 32h13.32a5.34 5.34 0 0 0 5.34-5.34V15.45h-4.1a8.88 8.88 0 0 0-6.1 2.74Z" style="fill:url(#linear-gradient-2)"/><path d="M28.92 26.41A6.38 6.38 0 0 1 22.53 20a.94.94 0 0 1 1.88 0 4.51 4.51 0 1 0 9 0 .94.94 0 0 1 1.87 0 6.38 6.38 0 0 1-6.38 6.39ZM80.7 23h-4.63a1.37 1.37 0 0 1-1.38-1.37v-1.7H72v3.63a1.38 1.38 0 1 1-2.75 0v-3.63H66.6v3.6a1.38 1.38 0 0 1-2.76 0v-3.6h-2.65v5.18a4.26 4.26 0 0 1-4.68 4.23 4.38 4.38 0 0 1-3.83-4.42V22.6A2.64 2.64 0 0 0 50 20v4.91A7.08 7.08 0 0 0 56 32a6.93 6.93 0 0 0 7.49-4.79 3.86 3.86 0 0 0 1.7.39 4 4 0 0 0 2.69-1.05 4 4 0 0 0 6.39-1.29 3.89 3.89 0 0 0 1.77.43h7.28A2.65 2.65 0 0 0 80.7 23ZM110.14 32a2.65 2.65 0 0 0 2.65-2.64V24.4h-2.65ZM85.63 31.94a2.65 2.65 0 0 0 2.65-2.64v-9.36h-2.65ZM103.49 22.56h2a2.65 2.65 0 0 0 2.66-2.63h-4.69A3.49 3.49 0 0 0 101 21a3.63 3.63 0 0 0-1.06 2.52A3.46 3.46 0 0 0 101 26a3.54 3.54 0 0 0 2.51 1.05h1.24a4.78 4.78 0 0 1-4 2.21 4.7 4.7 0 0 1-4.76-4.62v-4.7h-2.72v4.75a7.41 7.41 0 0 0 14.79.53v-.72h-4.59a.94.94 0 0 1-.66-.27 1.08 1.08 0 0 1 0-1.43.83.83 0 0 1 .68-.24ZM81.13 27.65h-4.29A2.15 2.15 0 0 0 79 29.8h2.17V32a2.15 2.15 0 0 0 2.15-2.12v-2.23h-2.19ZM112.53 19.94a2.63 2.63 0 0 0-2.63 2.63h5.29a2.63 2.63 0 0 0 2.63-2.57h-5.29ZM51.92 13.79a2.38 2.38 0 0 1-.09.7 1.13 1.13 0 0 1-.28.49 1.08 1.08 0 0 1-.46.28 2.25 2.25 0 0 1-.67.1h-.52v.7h.52a2.75 2.75 0 0 0 .95-.15 2 2 0 0 0 .7-.45 1.84 1.84 0 0 0 .41-.71 2.85 2.85 0 0 0 .14-1v-2.3h-.7ZM51.6 9.82l.65-.64.64.66-.64.64zM53.74 8.64h.71v5.34h-.71zM76.55 9.26l.64-.64.65.65-.64.64zM88.63 9.39l.64-.65.65.65-.64.65zM90.07 12l-.07-.38c0-.12-.05-.23-.06-.32v-.24a.9.9 0 0 1 0-.12l-.68.2a.53.53 0 0 1 0 .16v.24a2.18 2.18 0 0 1 0 .29v.56a1.83 1.83 0 0 1 0 .21.75.75 0 0 1-.08.37.63.63 0 0 1-.18.21.6.6 0 0 1-.21.08h-1.15a.89.89 0 0 1-.56-.16.68.68 0 0 1-.19-.5v-1.14h-.71v1.16a.75.75 0 0 1-.06.31.6.6 0 0 1-.14.2.49.49 0 0 1-.2.11.52.52 0 0 1-.21 0 .78.78 0 0 1-.56-.17.69.69 0 0 1-.18-.53v-1.08h-.7v1.14a.7.7 0 0 1-.07.35.58.58 0 0 1-.16.21.48.48 0 0 1-.19.09h-.17a.86.86 0 0 1-.55-.17.73.73 0 0 1-.17-.53v-1.09h-.71v1.14a1.14 1.14 0 0 1 0 .28.42.42 0 0 1-.11.22.47.47 0 0 1-.23.13 1.37 1.37 0 0 1-.39 0h-1a.67.67 0 0 1-.19 0 .82.82 0 0 1-.2-.12.44.44 0 0 1-.13-.21l.44-.28.19-.12-.1-.63-1.32-.49-.64-.24L78 11l-.31-.1-.19-.06h-.17c-.61 0-1 .37-1.21 1.11l.69.18a1 1 0 0 1 .12-.33.4.4 0 0 1 .13-.17.28.28 0 0 1 .13-.07h.14a1.27 1.27 0 0 1 .28.08l.52.17.66.25.72.28-.61.33c-.23.11-.48.22-.74.32a7.27 7.27 0 0 1-.83.25 4.11 4.11 0 0 1-.85.1h-1.32a1.21 1.21 0 0 1-.35-.12 1.26 1.26 0 0 1-.32-.26 1.35 1.35 0 0 1-.22-.45 2.18 2.18 0 0 1-.06-.22c0-.09 0-.18-.07-.28s-.05-.21-.07-.31 0-.2-.08-.29 0-.18 0-.25v-.15c0-.15-.07-.32-.12-.52l-.16-.66-.71.05.07.41a3.2 3.2 0 0 0-1.45.8 1.47 1.47 0 0 0-.39.6 1.88 1.88 0 0 0-.1.53 1.69 1.69 0 0 0 .24.84 1.16 1.16 0 0 0 .44.38 1.34 1.34 0 0 0 .36.14 1.47 1.47 0 0 0 .36 0 1.69 1.69 0 0 0 .33 0 1 1 0 0 0 .28-.08 2 2 0 0 0 .38-.21 1.28 1.28 0 0 0 .28-.29 1.71 1.71 0 0 0 .69.72 2.1 2.1 0 0 0 1 .25h1.05a4.74 4.74 0 0 0 .75-.06 5.4 5.4 0 0 0 .72-.17 7 7 0 0 0 .69-.25l.62-.28a1.12 1.12 0 0 0 .33.45 1.32 1.32 0 0 0 .42.23 1.46 1.46 0 0 0 .52.08h.92a1.57 1.57 0 0 0 1.07-.33s0 0 0-.06a1.38 1.38 0 0 0 1 .39 1.43 1.43 0 0 0 .49-.1 1.28 1.28 0 0 0 .43-.3 1.43 1.43 0 0 0 1.09.4 1.42 1.42 0 0 0 .5-.08 1.22 1.22 0 0 0 .41-.27l.06-.06a1.17 1.17 0 0 0 .47.31 1.74 1.74 0 0 0 .63.1h1a1.29 1.29 0 0 0 .47-.08 1.24 1.24 0 0 0 .43-.25 1.38 1.38 0 0 0 .3-.43 1.46 1.46 0 0 0 .12-.62 1.57 1.57 0 0 0 0-.29c.12-.1.1-.21.09-.3Zm-16.67.18a.87.87 0 0 1-.55.71h-.35a.68.68 0 0 1-.2 0 .45.45 0 0 1-.18-.07.65.65 0 0 1-.2-.17.47.47 0 0 1-.11-.26.77.77 0 0 1 0-.15.93.93 0 0 1 0-.29 1.1 1.1 0 0 1 .27-.39 2 2 0 0 1 .47-.33 3.52 3.52 0 0 1 .65-.26l.15.64v.16a1 1 0 0 1 0 .15 1.85 1.85 0 0 1 .05.23ZM98.37 10.52l-.61-.61-.58.61.59.6.6-.6zM96.94 10.51l-.61-.61-.58.61.59.6.6-.6zM102.92 8.42l.65-.64.65.65-.64.64z" class="cls-2"/><path d="M104.56 10.45a1.25 1.25 0 0 0-.46-.4A1.42 1.42 0 0 0 103 10a1.32 1.32 0 0 0-.44.3 1.31 1.31 0 0 0-.3.46 1.62 1.62 0 0 0-.11.58 1.58 1.58 0 0 0 .19.74 1 1 0 0 0 .19.22 1.37 1.37 0 0 0 .21.15l.25.11.26.06h1.04a.89.89 0 0 1-.06.2.59.59 0 0 1-.19.2 1.4 1.4 0 0 1-.4.15 3.1 3.1 0 0 1-.68.06h-1.74a.68.68 0 0 1-.23-.07.6.6 0 0 1-.21-.18.49.49 0 0 1-.1-.34v-1.25h-.7v1.3a.75.75 0 0 1 0 .2.34.34 0 0 1-.11.19.61.61 0 0 1-.24.14 1.33 1.33 0 0 1-.44.06h-4.45a.51.51 0 0 1-.22-.09.58.58 0 0 1-.18-.22.69.69 0 0 1-.08-.38 1.78 1.78 0 0 1 0-.3l.06-.33c0-.11.06-.21.08-.31s0-.17.07-.22l-.68-.21a1.37 1.37 0 0 1 0 .18 3.46 3.46 0 0 0-.09.35q0 .19-.09.42a3.29 3.29 0 0 0 0 .42 2 2 0 0 0 0 .37 2.11 2.11 0 0 0 .1.3 2.32 2.32 0 0 0 .14.23 1.17 1.17 0 0 0 .15.16 1.14 1.14 0 0 0 .42.26 1.35 1.35 0 0 0 .5.09h4.25a1.55 1.55 0 0 0 1.15-.4v.05a1.27 1.27 0 0 0 .43.23 1.62 1.62 0 0 0 .44.07h1.66a2.7 2.7 0 0 0 1.44-.31 1.19 1.19 0 0 0 .45-.47 1.39 1.39 0 0 0 .14-.66V12a4.19 4.19 0 0 0-.09-.91 2 2 0 0 0-.23-.64Zm-.88 1.55a2.05 2.05 0 0 1-.37 0 1.07 1.07 0 0 1-.27-.09l-.08-.06-.09-.09a.4.4 0 0 1-.07-.13 1.25 1.25 0 0 1 0-.21.69.69 0 0 1 .23-.56.76.76 0 0 1 .23-.13.82.82 0 0 1 .26 0 .58.58 0 0 1 .49.24 1.45 1.45 0 0 1 .19.45 3 3 0 0 1 .08.65ZM107.75 15.42l.58.6.61-.6-.6-.6-.59.6zM109.18 15.41l.58.61.61-.61-.6-.6-.59.6zM109.9 13.65a1.38 1.38 0 0 0 .3-.43 1.46 1.46 0 0 0 .12-.62v-.63l-.06-.35c0-.12 0-.23-.06-.32s0-.18 0-.24a.9.9 0 0 1 0-.12l-.68.2a.53.53 0 0 1 0 .16v.24a2.18 2.18 0 0 1 0 .29v.56a1.83 1.83 0 0 1 0 .21.75.75 0 0 1-.08.37.63.63 0 0 1-.18.21.6.6 0 0 1-.21.08H107.5a3.06 3.06 0 0 1-.53 0 .38.38 0 0 1-.26-.15.52.52 0 0 1-.11-.31 4 4 0 0 1 0-.53V8.64h-.6v4.13a1.91 1.91 0 0 0 .08.44 1 1 0 0 0 .16.33.85.85 0 0 0 .29.24 1.28 1.28 0 0 0 .43.15 3.37 3.37 0 0 0 .49.05H109a1.29 1.29 0 0 0 .47-.08 1.24 1.24 0 0 0 .43-.25ZM112.91 13.79a2.38 2.38 0 0 1-.09.7 1.13 1.13 0 0 1-.28.49 1.08 1.08 0 0 1-.46.28 2.25 2.25 0 0 1-.67.1h-.52v.7h.52a2.75 2.75 0 0 0 1-.15 2 2 0 0 0 .7-.45 1.84 1.84 0 0 0 .41-.71 2.85 2.85 0 0 0 .14-1v-2.3h-.7ZM117.73 12.72a1.66 1.66 0 0 0-.12-.31 1.46 1.46 0 0 0-.17-.3l-.41-.63-.32-.47-.23-.35-.16-.25-.13-.19-.1-.15-.6.39 1.36 2a1.83 1.83 0 0 1 .16.3.74.74 0 0 1 0 .18.22.22 0 0 1 0 .08.39.39 0 0 1-.18.14 1.79 1.79 0 0 1-.36.1h-.84l-.4-.07a1.07 1.07 0 0 1-.32-.12l-.32-.18-.35.62.31.18.31.14a2.11 2.11 0 0 0 .36.09 2.32 2.32 0 0 0 .38 0 2.48 2.48 0 0 0 .38 0H116.56a1.28 1.28 0 0 0 1.09-.65.83.83 0 0 0 .08-.24V13a1.33 1.33 0 0 0 0-.28ZM58.5 7.55a.45.45 0 0 0-.33.12.47.47 0 0 0-.11.31.4.4 0 0 0 .44.42.42.42 0 0 0 .33-.12A.41.41 0 0 0 59 8a.43.43 0 0 0-.12-.31.42.42 0 0 0-.38-.14ZM58.13 9.13h.74v4.35h-.74zM61.84 9.05a1.86 1.86 0 0 0-1 .28 1.75 1.75 0 0 0-.7.79 2.53 2.53 0 0 0-.26 1.15v.05a2.38 2.38 0 0 0 .53 1.68 1.85 1.85 0 0 0 1.44.61 1.93 1.93 0 0 0 1-.28 1.87 1.87 0 0 0 .69-.78 2.51 2.51 0 0 0 .25-1.14v-.11a2.38 2.38 0 0 0-.55-1.63 1.85 1.85 0 0 0-1.4-.62Zm.91 3.46a1.13 1.13 0 0 1-1.8 0 1.82 1.82 0 0 1-.34-1.16A2.06 2.06 0 0 1 61 10.1a1.12 1.12 0 0 1 1.79 0 1.82 1.82 0 0 1 .34 1.16 2 2 0 0 1-.38 1.25ZM67.36 11.27a3.63 3.63 0 0 0-.9-.3 2.46 2.46 0 0 1-.77-.26.45.45 0 0 1-.22-.41.56.56 0 0 1 .23-.46 1 1 0 0 1 .64-.18 1 1 0 0 1 .65.22.7.7 0 0 1 .26.53H68a1.21 1.21 0 0 0-.46-1 1.85 1.85 0 0 0-1.2-.38 1.75 1.75 0 0 0-1.16.37 1.14 1.14 0 0 0-.45.91.92.92 0 0 0 .16.55 1.18 1.18 0 0 0 .49.4 3.39 3.39 0 0 0 .9.29 2.22 2.22 0 0 1 .79.29.55.55 0 0 1 .22.47.53.53 0 0 1-.25.46 1.24 1.24 0 0 1-.68.17 1.21 1.21 0 0 1-.74-.22.83.83 0 0 1-.3-.6h-.74a1.19 1.19 0 0 0 .23.72 1.41 1.41 0 0 0 .63.52 2.19 2.19 0 0 0 .92.18 1.91 1.91 0 0 0 1.21-.35 1.1 1.1 0 0 0 .47-.93 1.06 1.06 0 0 0-.17-.6 1.27 1.27 0 0 0-.51-.39Z" class="cls-2"/></g></g></svg>