<svg xmlns="http://www.w3.org/2000/svg" xmlns:xlink="http://www.w3.org/1999/xlink" width="508" height="356"><defs><radialGradient id="b" cx="50%" cy="79.39%" r="100%" fx="50%" fy="79.39%" gradientTransform="matrix(0 -1 .54953 0 .06 1.3)"><stop offset="0%" stop-opacity=".48"/><stop offset="100%" stop-opacity="0"/></radialGradient><linearGradient id="a" x1="50%" x2="50%" y1="0%" y2="100%"><stop offset="0%" stop-color="#FCFCFC"/><stop offset="47.92%" stop-color="#F9F9FA"/><stop offset="100%" stop-color="#F7F7F8"/></linearGradient><filter id="c" width="108.9%" height="289.5%" x="-4.4%" y="-94.7%" filterUnits="objectBoundingBox"><feGaussianBlur in="SourceGraphic" stdDeviation="6"/></filter><path id="d" d="M471.62 21c5.35 0 7.29.56 9.24 1.6a10.9 10.9 0 0 1 4.54 4.54c1.04 1.95 1.6 3.9 1.6 9.24v249.24c0 5.35-.56 7.29-1.6 9.24a10.9 10.9 0 0 1-4.54 4.54c-1.95 1.04-3.9 1.6-9.24 1.6H97.38c-5.35 0-7.29-.56-9.24-1.6a10.9 10.9 0 0 1-4.54-4.54c-1.04-1.95-1.6-3.9-1.6-9.24V36.38c0-5.35.56-7.29 1.6-9.24a10.9 10.9 0 0 1 4.54-4.54c1.95-1.04 3.9-1.6 9.24-1.6h374.24zM471 33H95a2 2 0 0 0-2 2v215h380V35a2 2 0 0 0-2-2z"/></defs><g fill="none" fill-rule="evenodd"><g fill="#000" opacity=".12" transform="translate(346)"><circle cx="3" cy="3" r="3"/><circle cx="87" cy="3" r="3"/><circle cx="15" cy="3" r="3"/><circle cx="99" cy="3" r="3"/><circle cx="27" cy="3" r="3"/><circle cx="111" cy="3" r="3"/><circle cx="39" cy="3" r="3"/><circle cx="123" cy="3" r="3"/><circle cx="51" cy="3" r="3"/><circle cx="135" cy="3" r="3"/><circle cx="63" cy="3" r="3"/><circle cx="147" cy="3" r="3"/><circle cx="75" cy="3" r="3"/><circle cx="159" cy="3" r="3"/><circle cx="3" cy="15" r="3"/><circle cx="87" cy="15" r="3"/><circle cx="15" cy="15" r="3"/><circle cx="99" cy="15" r="3"/><circle cx="27" cy="15" r="3"/><circle cx="111" cy="15" r="3"/><circle cx="39" cy="15" r="3"/><circle cx="123" cy="15" r="3"/><circle cx="51" cy="15" r="3"/><circle cx="135" cy="15" r="3"/><circle cx="63" cy="15" r="3"/><circle cx="147" cy="15" r="3"/><circle cx="75" cy="15" r="3"/><circle cx="159" cy="15" r="3"/><circle cx="3" cy="27" r="3"/><circle cx="87" cy="27" r="3"/><circle cx="15" cy="27" r="3"/><circle cx="99" cy="27" r="3"/><circle cx="27" cy="27" r="3"/><circle cx="111" cy="27" r="3"/><circle cx="39" cy="27" r="3"/><circle cx="123" cy="27" r="3"/><circle cx="51" cy="27" r="3"/><circle cx="135" cy="27" r="3"/><circle cx="63" cy="27" r="3"/><circle cx="147" cy="27" r="3"/><circle cx="75" cy="27" r="3"/><circle cx="159" cy="27" r="3"/><circle cx="135" cy="39" r="3"/><circle cx="147" cy="39" r="3"/><circle cx="159" cy="39" r="3"/><circle cx="135" cy="51" r="3"/><circle cx="147" cy="51" r="3"/><circle cx="159" cy="51" r="3"/><circle cx="135" cy="63" r="3"/><circle cx="147" cy="63" r="3"/><circle cx="159" cy="63" r="3"/><circle cx="135" cy="75" r="3"/><circle cx="147" cy="75" r="3"/><circle cx="159" cy="75" r="3"/><circle cx="135" cy="87" r="3"/><circle cx="147" cy="87" r="3"/><circle cx="159" cy="87" r="3"/><circle cx="135" cy="99" r="3"/><circle cx="147" cy="99" r="3"/><circle cx="159" cy="99" r="3"/><circle cx="135" cy="111" r="3"/><circle cx="147" cy="111" r="3"/><circle cx="159" cy="111" r="3"/><circle cx="135" cy="123" r="3"/><circle cx="147" cy="123" r="3"/><circle cx="159" cy="123" r="3"/><circle cx="135" cy="135" r="3"/><circle cx="147" cy="135" r="3"/><circle cx="159" cy="135" r="3"/><circle cx="135" cy="147" r="3"/><circle cx="147" cy="147" r="3"/><circle cx="159" cy="147" r="3"/></g><g fill="#A62626" fill-rule="nonzero" opacity=".56" transform="translate(0 200)"><circle cx="3" cy="3" r="3"/><circle cx="87" cy="3" r="3"/><circle cx="15" cy="3" r="3"/><circle cx="27" cy="3" r="3"/><circle cx="39" cy="3" r="3"/><circle cx="51" cy="3" r="3"/><circle cx="63" cy="3" r="3"/><circle cx="75" cy="3" r="3"/><circle cx="3" cy="15" r="3"/><circle cx="87" cy="15" r="3"/><circle cx="15" cy="15" r="3"/><circle cx="27" cy="15" r="3"/><circle cx="39" cy="15" r="3"/><circle cx="51" cy="15" r="3"/><circle cx="63" cy="15" r="3"/><circle cx="75" cy="15" r="3"/><circle cx="3" cy="27" r="3"/><circle cx="87" cy="27" r="3"/><circle cx="15" cy="27" r="3"/><circle cx="27" cy="27" r="3"/><circle cx="39" cy="27" r="3"/><circle cx="51" cy="27" r="3"/><circle cx="63" cy="27" r="3"/><circle cx="75" cy="27" r="3"/><circle cx="3" cy="39" r="3"/><circle cx="87" cy="39" r="3"/><circle cx="15" cy="39" r="3"/><circle cx="27" cy="39" r="3"/><circle cx="39" cy="39" r="3"/><circle cx="51" cy="39" r="3"/><circle cx="63" cy="39" r="3"/><circle cx="75" cy="39" r="3"/><circle cx="3" cy="51" r="3"/><circle cx="87" cy="51" r="3"/><circle cx="15" cy="51" r="3"/><circle cx="27" cy="51" r="3"/><circle cx="39" cy="51" r="3"/><circle cx="51" cy="51" r="3"/><circle cx="63" cy="51" r="3"/><circle cx="75" cy="51" r="3"/><circle cx="3" cy="63" r="3"/><circle cx="87" cy="63" r="3"/><circle cx="15" cy="63" r="3"/><circle cx="99" cy="63" r="3"/><circle cx="27" cy="63" r="3"/><circle cx="111" cy="63" r="3"/><circle cx="39" cy="63" r="3"/><circle cx="123" cy="63" r="3"/><circle cx="51" cy="63" r="3"/><circle cx="135" cy="63" r="3"/><circle cx="63" cy="63" r="3"/><circle cx="147" cy="63" r="3"/><circle cx="75" cy="63" r="3"/><circle cx="159" cy="63" r="3"/><circle cx="3" cy="75" r="3"/><circle cx="87" cy="75" r="3"/><circle cx="15" cy="75" r="3"/><circle cx="99" cy="75" r="3"/><circle cx="27" cy="75" r="3"/><circle cx="111" cy="75" r="3"/><circle cx="39" cy="75" r="3"/><circle cx="123" cy="75" r="3"/><circle cx="51" cy="75" r="3"/><circle cx="135" cy="75" r="3"/><circle cx="63" cy="75" r="3"/><circle cx="147" cy="75" r="3"/><circle cx="75" cy="75" r="3"/><circle cx="159" cy="75" r="3"/><circle cx="3" cy="87" r="3"/><circle cx="87" cy="87" r="3"/><circle cx="15" cy="87" r="3"/><circle cx="99" cy="87" r="3"/><circle cx="27" cy="87" r="3"/><circle cx="111" cy="87" r="3"/><circle cx="39" cy="87" r="3"/><circle cx="123" cy="87" r="3"/><circle cx="51" cy="87" r="3"/><circle cx="135" cy="87" r="3"/><circle cx="63" cy="87" r="3"/><circle cx="147" cy="87" r="3"/><circle cx="75" cy="87" r="3"/><circle cx="159" cy="87" r="3"/><circle cx="3" cy="99" r="3"/><circle cx="87" cy="99" r="3"/><circle cx="15" cy="99" r="3"/><circle cx="99" cy="99" r="3"/><circle cx="27" cy="99" r="3"/><circle cx="111" cy="99" r="3"/><circle cx="39" cy="99" r="3"/><circle cx="123" cy="99" r="3"/><circle cx="51" cy="99" r="3"/><circle cx="135" cy="99" r="3"/><circle cx="63" cy="99" r="3"/><circle cx="147" cy="99" r="3"/><circle cx="75" cy="99" r="3"/><circle cx="159" cy="99" r="3"/><circle cx="3" cy="111" r="3"/><circle cx="87" cy="111" r="3"/><circle cx="15" cy="111" r="3"/><circle cx="99" cy="111" r="3"/><circle cx="27" cy="111" r="3"/><circle cx="111" cy="111" r="3"/><circle cx="39" cy="111" r="3"/><circle cx="123" cy="111" r="3"/><circle cx="51" cy="111" r="3"/><circle cx="135" cy="111" r="3"/><circle cx="63" cy="111" r="3"/><circle cx="147" cy="111" r="3"/><circle cx="75" cy="111" r="3"/><circle cx="159" cy="111" r="3"/><circle cx="3" cy="123" r="3"/><circle cx="87" cy="123" r="3"/><circle cx="15" cy="123" r="3"/><circle cx="99" cy="123" r="3"/><circle cx="27" cy="123" r="3"/><circle cx="111" cy="123" r="3"/><circle cx="39" cy="123" r="3"/><circle cx="123" cy="123" r="3"/><circle cx="51" cy="123" r="3"/><circle cx="135" cy="123" r="3"/><circle cx="63" cy="123" r="3"/><circle cx="147" cy="123" r="3"/><circle cx="75" cy="123" r="3"/><circle cx="159" cy="123" r="3"/><circle cx="3" cy="135" r="3"/><circle cx="87" cy="135" r="3"/><circle cx="15" cy="135" r="3"/><circle cx="99" cy="135" r="3"/><circle cx="27" cy="135" r="3"/><circle cx="111" cy="135" r="3"/><circle cx="39" cy="135" r="3"/><circle cx="123" cy="135" r="3"/><circle cx="51" cy="135" r="3"/><circle cx="135" cy="135" r="3"/><circle cx="63" cy="135" r="3"/><circle cx="147" cy="135" r="3"/><circle cx="75" cy="135" r="3"/><circle cx="159" cy="135" r="3"/><circle cx="3" cy="147" r="3"/><circle cx="87" cy="147" r="3"/><circle cx="15" cy="147" r="3"/><circle cx="99" cy="147" r="3"/><circle cx="27" cy="147" r="3"/><circle cx="111" cy="147" r="3"/><circle cx="39" cy="147" r="3"/><circle cx="123" cy="147" r="3"/><circle cx="51" cy="147" r="3"/><circle cx="135" cy="147" r="3"/><circle cx="63" cy="147" r="3"/><circle cx="147" cy="147" r="3"/><circle cx="75" cy="147" r="3"/><circle cx="159" cy="147" r="3"/></g><path fill="#F0F1F2" d="M352.99 344.03c-2.14-2.25-18.38-16.74-19.94-19.58-1.57-2.83-4.28-22.45-4.28-22.45h-89.55s-2.7 19.61-4.27 22.45c-1.57 2.84-17.8 17.33-19.94 19.58-2.14 2.26-2 5.97 11.68 5.97h114.62c13.67 0 13.81-3.71 11.68-5.97"/><path fill="url(#a)" d="M352.99 342.16c-2.14-2.21-18.38-16.4-19.94-19.17-1.57-2.78-4.28-21.99-4.28-21.99h-89.55s-2.7 19.2-4.27 21.98c-1.57 2.78-17.8 16.97-19.94 19.18-2.14 2.2-2 5.84 11.68 5.84h114.62c13.67 0 13.81-3.63 11.68-5.84"/><path fill="url(#b)" d="M81 335.02c77.38 1.99 140.7 2.98 189.97 2.98 49.27 0 121.28-1 216.03-2.98C428.98 324.34 356.53 319 269.65 319S119.89 324.34 81 335.02z" filter="url(#c)" opacity=".16"/><mask id="e" fill="#fff"><use xlink:href="#d"/></mask><use xlink:href="#d" fill="#EEF1F1"/><path fill="#F9FAFA" d="M82 262h405v39H82z" mask="url(#e)"/></g></svg>