<svg xmlns="http://www.w3.org/2000/svg" width="162" height="48"><defs><linearGradient id="a" x1="50%" x2="50%" y1="0%" y2="100%"><stop offset="0%" stop-color="#98DC02"/><stop offset="100%" stop-color="#00A15A"/></linearGradient></defs><g fill="none" fill-rule="evenodd" transform="translate(1 1)"><rect width="161" height="47" x="-.5" y="-.5" fill="#0A0B09" stroke="#9D9E9A" rx="5"/><path fill="#FFFFFE" d="M103.99 22.5v3.76c0 .49-.08.94-.23 1.37a3.37 3.37 0 0 1-.64 1.1 2.9 2.9 0 0 1-2.33 1l-1.04-.02-.23-1.31h.8c.78 0 1.37-.16 1.75-.49.39-.32.58-.77.58-1.34v-4.06h1.34zm37.72 0v3.76c0 .49-.08.94-.23 1.37a3.36 3.36 0 0 1-.63 1.1c-.28.32-.61.56-1 .73-.4.18-.85.26-1.34.26l-.57-.01-.21-1.31h.31c.78 0 1.37-.16 1.75-.49.39-.32.58-.77.58-1.34v-4.06h1.34zm-8.04 5.36a.81.81 0 0 1 .6.25.8.8 0 0 1 .24.57.84.84 0 0 1-.24.6.8.8 0 0 1-.6.26.8.8 0 0 1-.6-.25.84.84 0 0 1-.23-.6.8.8 0 0 1 .24-.58.81.81 0 0 1 .6-.25zm2.16 0a.8.8 0 0 1 .58.25.8.8 0 0 1 .24.57.84.84 0 0 1-.24.6.78.78 0 0 1-.58.26.8.8 0 0 1-.6-.25.83.83 0 0 1-.25-.6c0-.23.08-.42.24-.58a.82.82 0 0 1 .61-.25zm-28.61-9.52v8.15H106v-8.15h1.22zm19.47 1.92c.38 0 .71.08 1 .24.3.15.54.36.73.6.2.26.35.54.45.86.1.32.15.65.15.98v.95c0 .35-.04.68-.12 1-.08.3-.2.58-.36.82a1.7 1.7 0 0 1-1.48.78h-3.82c-.32 0-.63-.03-.93-.1a1.84 1.84 0 0 1-.8-.37 1.7 1.7 0 0 1-1.22.47h-6.73c-.6 0-1.07-.18-1.37-.53a2.3 2.3 0 0 1-.45-1.53v-1.92h1.27v1.72c0 .36.08.6.23.74.15.14.39.21.73.21h6.06c.34 0 .57-.07.67-.23.1-.16.15-.4.15-.72v-1.72h1.3v1.79c0 .34.12.58.35.7.23.12.47.18.74.18h3.62c.4 0 .66-.08.78-.24a.88.88 0 0 0 .16-.58l-1.64-.05c-.57-.02-.99-.2-1.24-.56a2.3 2.3 0 0 1-.39-1.38c0-.3.05-.58.16-.83a2.04 2.04 0 0 1 .44-.67c.2-.2.42-.34.68-.45.26-.1.56-.16.88-.16zm5.61-1.92v5.84c0 .42.09.7.26.82s.41.18.71.18h2c.2 0 .37-.02.5-.07a.7.7 0 0 0 .3-.2.63.63 0 0 0 .12-.3c.02-.12.03-.25.03-.38v-1.72h1.3v1.92a2.3 2.3 0 0 1-.46 1.5c-.3.38-.78.56-1.41.56h-2.51c-.65 0-1.16-.16-1.54-.5-.38-.32-.57-.86-.57-1.6v-6.05h1.27zm13.63 2 2.84 3.04c.22.22.38.46.48.72.1.25.16.5.16.75 0 .45-.16.83-.48 1.16-.31.32-.79.48-1.41.48h-3.97l-.17-1.29h4.17c.2 0 .35-.04.45-.14a.43.43 0 0 0 .16-.33.71.71 0 0 0-.22-.48l-2.87-3.03.86-.87zm-19.37 1.23c-.36 0-.6.08-.75.25a.93.93 0 0 0-.2.62c0 .23.09.39.27.46.18.07.36.11.54.13l1.38.05c0-.18-.03-.36-.1-.55a1.63 1.63 0 0 0-.25-.48 1.33 1.33 0 0 0-.38-.35.97.97 0 0 0-.51-.13zm-10.92-1.8c.22 0 .42.1.58.26a.83.83 0 0 1 .24.6c0 .22-.08.42-.24.58a.79.79 0 0 1-.58.24.83.83 0 0 1-.85-.82.84.84 0 0 1 .85-.85zm2.26 0a.8.8 0 0 1 .6.26.83.83 0 0 1 .24.6.78.78 0 0 1-.24.58.8.8 0 0 1-.6.24.8.8 0 0 1-.6-.24.79.79 0 0 1-.24-.58c0-.23.09-.43.25-.6a.8.8 0 0 1 .6-.25zm-14.53-.58c.27 0 .5.1.68.29a.94.94 0 0 1 .29.68c0 .27-.1.5-.28.7a.92.92 0 0 1-.7.29.94.94 0 0 1-.7-.3.95.95 0 0 1-.28-.69c0-.27.1-.5.29-.68a.95.95 0 0 1 .7-.29zm23.19-1.56c.27 0 .5.1.68.29.2.19.29.42.29.69 0 .26-.1.5-.29.69a.92.92 0 0 1-.68.3.95.95 0 0 1-.7-.3.96.96 0 0 1-.3-.7c0-.26.1-.5.3-.68a.96.96 0 0 1 .7-.29zm-44.48 14.7a2.52 2.52 0 1 1 0 5.05 2.52 2.52 0 0 1 0-5.05zm-7.57-12.62a2.52 2.52 0 0 1 2.53 2.52v8.83a3.8 3.8 0 0 1-3.8 3.8h-6.3a2.52 2.52 0 1 1 0-5.05H72v-7.58a2.52 2.52 0 0 1 2.52-2.52zm-15.14-5.05a2.52 2.52 0 0 1 2.52 2.53v8.83a3.79 3.79 0 0 1-3.78 3.79H51.8a2.52 2.52 0 0 1 0-5.05h5.05v-7.57a2.52 2.52 0 0 1 2.52-2.52zm22.71-2.52a2.52 2.52 0 0 1 2.53 2.52v10.1h5.05a2.52 2.52 0 1 1 0 5.05h-6.28a3.82 3.82 0 0 1-3.82-3.82V14.67a2.52 2.52 0 0 1 2.52-2.53zM66.94 9.61a2.52 2.52 0 0 1 2.52 2.53v12.62a2.52 2.52 0 0 1-5.04 0V12.14a2.52 2.52 0 0 1 2.52-2.52zm7.57 2.53a2.52 2.52 0 1 1 0 5.05 2.52 2.52 0 0 1 0-5.05z"/><path fill="url(#a)" d="M16.2 0c1.5 0 2.92.74 4 2.08.98 1.2 1.55 2.57 2.09 3.9l.05.12.43 1.04.78 1.82.17.01c1.22.11 2.28.25 3.2.4.72.11 1.35.24 1.91.37 1.85.43 2.82.92 3.32 1.28a.6.6 0 0 1 .24.56l-.23 1.78c-.42 3.11-.93 7.03-2.25 10.58-.19.5-.39.99-.6 1.47a14.54 14.54 0 0 1-9.8 7.88 14.46 14.46 0 0 1-6.64 0 14.55 14.55 0 0 1-9.68-7.68 21.74 21.74 0 0 1-.76-1.85c-.59-1.6-1-3.28-1.33-4.92-.43-2.16-.69-4.27-.93-6.06L0 11.58a.6.6 0 0 1 .25-.56c.5-.36 1.46-.85 3.31-1.28a25.72 25.72 0 0 1 1.91-.38 44.88 44.88 0 0 1 3.38-.4l.77-1.82c.15-.33.29-.67.43-1.04l.06-.13c.53-1.32 1.1-2.68 2.07-3.89A5.17 5.17 0 0 1 16.2 0zm0 2.89c-.82 0-1.46.63-1.76 1-.23.3-.44.61-.63.95-.4.71-.73 1.51-1.07 2.35l-.46 1.1-.2.47a104.55 104.55 0 0 1 4.12-.07c1.5 0 2.88.02 4.12.07l-.2-.47-.46-1.1c-.34-.84-.66-1.64-1.07-2.35a6.85 6.85 0 0 0-.63-.94c-.3-.38-.94-1.01-1.76-1.01z" transform="translate(9.61 5.83)"/></g></svg>