<svg xmlns="http://www.w3.org/2000/svg" width="162" height="48"><defs><linearGradient id="a" x1="61.05%" x2="26.51%" y1="4.95%" y2="71.88%"><stop offset="0%" stop-color="#00A0FF"/><stop offset="1%" stop-color="#00A1FF"/><stop offset="26%" stop-color="#00BEFF"/><stop offset="51%" stop-color="#00D2FF"/><stop offset="76%" stop-color="#00DFFF"/><stop offset="100%" stop-color="#00E3FF"/></linearGradient><linearGradient id="b" x1="107.69%" x2="-130.64%" y1="50%" y2="50%"><stop offset="0%" stop-color="#FFE000"/><stop offset="41%" stop-color="#FFBD00"/><stop offset="78%" stop-color="orange"/><stop offset="100%" stop-color="#FF9C00"/></linearGradient><linearGradient id="c" x1="86.27%" x2="-50.18%" y1="30.87%" y2="136.11%"><stop offset="0%" stop-color="#FF3A44"/><stop offset="100%" stop-color="#C31162"/></linearGradient><linearGradient id="d" x1="-18.82%" x2="42.09%" y1="-11.91%" y2="35.08%"><stop offset="0%" stop-color="#32A071"/><stop offset="7%" stop-color="#2DA771"/><stop offset="48%" stop-color="#15CF74"/><stop offset="80%" stop-color="#06E775"/><stop offset="100%" stop-color="#00F076"/></linearGradient></defs><g fill="none" fill-rule="evenodd" transform="translate(1 1)"><rect width="161" height="47" x="-.5" y="-.5" fill="#0A0B09" stroke="#9D9E9A" rx="5"/><g fill-rule="nonzero"><path fill="#FFF" d="M87.28 19.41a4.16 4.16 0 1 0 4.18 4.16 4.1 4.1 0 0 0-4.18-4.16zm0 6.7a2.53 2.53 0 1 1 2.34-2.5 2.4 2.4 0 0 1-2.35 2.47v.04zm-9.1-6.7a4.16 4.16 0 1 0 4.18 4.16 4.1 4.1 0 0 0-4.18-4.16zm0 6.7a2.53 2.53 0 1 1 2.35-2.5 2.4 2.4 0 0 1-2.35 2.47v.04zM67.36 20.7v1.76h4.21a3.58 3.58 0 0 1-.96 2.24 4.28 4.28 0 0 1-3.25 1.3 4.7 4.7 0 0 1 0-9.38 4.47 4.47 0 0 1 3.17 1.25l1.26-1.24a6.18 6.18 0 0 0-4.47-1.78 6.46 6.46 0 1 0 0 12.91 5.93 5.93 0 0 0 4.47-1.81 5.84 5.84 0 0 0 1.52-4.13 5.48 5.48 0 0 0-.1-1.11l-5.85-.01zm44.26 1.37a3.87 3.87 0 0 0-3.56-2.65 3.96 3.96 0 0 0-3.92 4.16 4.07 4.07 0 0 0 4.12 4.16 4.15 4.15 0 0 0 3.47-1.85l-1.42-.95a2.37 2.37 0 0 1-2.05 1.12 2.11 2.11 0 0 1-2-1.26l5.58-2.3-.22-.43zm-5.67 1.39a2.23 2.23 0 0 1 2.18-2.43 1.61 1.61 0 0 1 1.54.88l-3.72 1.55zm-4.47 4.02h1.75V15.26h-1.8l.05 12.21zm-2.98-7.13h-.07a2.87 2.87 0 0 0-2.24-.93 4.16 4.16 0 0 0 0 8.32 2.85 2.85 0 0 0 2.24-.95h.07v.6a2.12 2.12 0 0 1-2.24 2.44 2.23 2.23 0 0 1-2.09-1.49l-1.59.67a3.95 3.95 0 0 0 3.68 2.45c2.15 0 3.96-1.25 3.96-4.33v-7.47h-1.77l.05.69zm-2.1 5.75a2.53 2.53 0 0 1 0-5.04 2.35 2.35 0 0 1 2.23 2.53 2.31 2.31 0 0 1-2.28 2.5h.05zm23.82-10.83h-4.37v12.21h1.83v-4.63h2.54a3.8 3.8 0 1 0 0-7.59zm0 5.89h-2.59v-4.2h2.6a2.1 2.1 0 1 1 0 4.2zm11.27-1.76a3.42 3.42 0 0 0-3.25 1.87l1.62.68c.32-.61.98-.96 1.66-.9a1.74 1.74 0 0 1 1.91 1.57v.12a4.15 4.15 0 0 0-1.9-.47c-1.74 0-3.52.96-3.52 2.75a2.83 2.83 0 0 0 3.03 2.7c.95.07 1.86-.4 2.37-1.2v.96h1.76v-4.7c.02-2.17-1.6-3.38-3.68-3.38zm-.22 6.7c-.6 0-1.43-.3-1.43-1.03 0-.94 1.03-1.31 1.93-1.31a3.25 3.25 0 0 1 1.64.37 2.23 2.23 0 0 1-2.14 1.97zm10.33-6.44-2.09 5.3h-.06l-2.17-5.3h-1.96l3.25 7.4-1.8 4.12h1.9l4.96-11.52h-2.03zm-16.41 7.82H127V15.26h-1.82v12.21z"/><path fill="url(#a)" d="M1.61 5.07a2.23 2.23 0 0 0-.53 1.57v24.72c-.03.57.15 1.13.53 1.56l.08.1 13.84-13.85v-.34L1.7 5l-.08.07z" transform="translate(25 4)"/><path fill="url(#b)" d="m20.12 23.78-4.59-4.61v-.34l4.59-4.61.1.06 5.49 3.11c1.56.88 1.56 2.34 0 3.23l-5.47 3.1-.12.06z" transform="translate(25 4)"/><path fill="url(#c)" d="M20.25 23.72 15.54 19 1.6 32.93a1.81 1.81 0 0 0 2.31.07l16.33-9.28" transform="translate(25 4)"/><path fill="url(#d)" d="M20.25 14.28 3.92 5.01a1.8 1.8 0 0 0-2.31.06L15.54 19l4.71-4.72z" transform="translate(25 4)"/><path fill="#000" d="m45.12 27.62-16.2 9.22c-.66.5-1.57.5-2.23 0l-.08.07.08.1c.66.5 1.57.5 2.23 0l16.33-9.3-.13-.1z" opacity=".2"/><path fill="#000" d="M26.61 36.77a2.23 2.23 0 0 1-.5-1.58v.17c-.03.57.16 1.13.53 1.57l.08-.08-.11-.08zm24.1-12.32-5.6 3.17.1.1 5.5-3.11A1.96 1.96 0 0 0 51.89 23a2.08 2.08 0 0 1-1.19 1.45z" opacity=".12"/><path fill="#FFF" d="m28.92 9.16 21.79 12.39A2.08 2.08 0 0 1 51.89 23a1.96 1.96 0 0 0-1.19-1.61L28.92 9.01c-1.55-.9-2.84-.16-2.84 1.63v.17c.04-1.8 1.29-2.53 2.84-1.65z" opacity=".25"/><path fill="#FFF" stroke="#FFF" stroke-width=".2" d="M103.5 39.87a1.79 1.79 0 0 1-.72-.14 1.62 1.62 0 0 1-.55-.4 4.21 4.21 0 0 1-2.1.54 2.09 2.09 0 0 1-.94-.17.53.53 0 0 1-.31-.48.8.8 0 0 1 .18-.55c.17.14.37.25.59.31.26.08.54.11.81.1.49 0 .97-.08 1.43-.22a8.54 8.54 0 0 1-.67-1.4 3.55 3.55 0 0 1-.22-1.05.68.68 0 0 1 .55-.68l.38 1.3a5.03 5.03 0 0 0 .68 1.49c.11.18.26.32.43.43.16.07.33.11.5.11.06 0 .1 0 .1.08v.63s-.08.1-.14.1z"/><path fill="#FFF" stroke="#FFF" stroke-width=".2" d="M106.3 37.53a.41.41 0 0 1 .27.08 11.17 11.17 0 0 1-.5 1.1c.2.12.41.23.64.3.22.06.44.09.66.09 0 0 .08 0 .08.07v.6s0 .07-.08.07a2.45 2.45 0 0 1-1.64-.59l-.17.21c-.23.15-.48.23-.75.26-.42.08-.84.12-1.26.12 0 0-.08 0-.08-.07v-.63c0-.06 0-.08.08-.08.37.02.74.02 1.12 0 .22-.01.43-.08.62-.19.23-.24.41-.51.55-.81l.18-.34a.32.32 0 0 1 .29-.2zm-.9 3.65a4.94 4.94 0 0 1-.62.72 5.79 5.79 0 0 1-.68-.64c.17-.16.4-.4.66-.7l.63.62zm1.55-.14c-.18.26-.38.5-.62.7a4.36 4.36 0 0 1-.68-.62l.66-.7.64.62z"/><path fill="#FFF" stroke="#FFF" stroke-width=".2" d="M107.5 39.87s-.1 0-.1-.08v-.63c0-.05 0-.08.1-.08.21 0 .43-.02.64-.07a.9.9 0 0 0 .43-.22c.2-.23.36-.49.48-.77l.19-.33a.32.32 0 0 1 .31-.17.41.41 0 0 1 .26.08c-.15.38-.32.75-.5 1.11a2.38 2.38 0 0 0 1.3.4s.08 0 .08.07v.58s0 .08-.09.08a2.36 2.36 0 0 1-1.63-.6l-.17.22a1 1 0 0 1-.5.26 2.54 2.54 0 0 1-.8.14zm2.23-3.71a5.29 5.29 0 0 1-.66.76 6.86 6.86 0 0 1-.75-.68c.36-.35.6-.61.73-.76.16.24.4.46.63.68h.05z"/><path fill="#FFF" stroke="#FFF" stroke-width=".2" d="M110.66 39.87c-.07 0-.1 0-.1-.08v-.63c0-.05 0-.08.1-.08a8.45 8.45 0 0 0 2.19-.27c.29-.08.58-.2.85-.33a2.6 2.6 0 0 0-.7-1.12 5.95 5.95 0 0 0-1.46-.95.95.95 0 0 1-.26 0 .56.56 0 0 1-.44-.19.64.64 0 0 1-.18-.48c0-.2.04-.4.1-.6.07-.24.13-.37.16-.38.92-.48 1.63-.83 2.12-1.05a36.55 36.55 0 0 1 1.56-.67.5.5 0 0 1 .16.39v.09a.66.66 0 0 1-.43.52c-1.42.58-2.51 1.12-3.35 1.42a5.2 5.2 0 0 1 1.5.63 4.47 4.47 0 0 1 1.13 1c.25.28.4.64.42 1.02a1.36 1.36 0 0 1-.74 1.33 6.16 6.16 0 0 1-2.63.43zm15.1 0a2.37 2.37 0 0 1-1.76-.73 6.05 6.05 0 0 1-1.54.54 9.32 9.32 0 0 1-2 .19 3.35 3.35 0 0 1-1.87-.44 1.49 1.49 0 0 1-.65-1.32 4.37 4.37 0 0 1 .14-1.12h.37v.52c-.02.32.06.65.23.93.18.23.43.4.72.5.42.12.87.18 1.32.17a9.94 9.94 0 0 0 1.84-.2c.43-.05.85-.18 1.24-.37a1 1 0 0 0 .19-.2 1.42 1.42 0 0 0 .18-.25l.14-.27a.34.34 0 0 1 .33-.17c.09 0 .17.03.24.08-.12.31-.25.62-.4.92a2.2 2.2 0 0 0 1.35.44s.08 0 .08.07v.6s-.09.1-.14.1zM121.24 36c-.17.26-.38.5-.6.72a6.08 6.08 0 0 1-.7-.64c.18-.17.4-.4.67-.7l.63.62zm1.56-.15c-.17.27-.38.5-.62.7a4.28 4.28 0 0 1-.68-.63c.07-.07.3-.29.67-.7.07.06.29.31.63.63z"/><path fill="#FFF" stroke="#FFF" stroke-width=".2" d="M129.13 38.52a6.55 6.55 0 0 0-.14-.81 2.31 2.31 0 0 1-.7.42 2.09 2.09 0 0 1-.77.15.93.93 0 0 1-.74-.34 1.32 1.32 0 0 1-.29-.86c0-.5.12-.98.38-1.4.18-.35.52-.58.9-.6.36 0 .7.13.96.38.3.31.53.7.65 1.12.17.5.25 1 .24 1.53a2.63 2.63 0 0 1-.36 1.04 4.25 4.25 0 0 1-1.4.57 9.12 9.12 0 0 1-2.04.18c-.06 0-.1 0-.1-.1v-.6s0-.08.1-.08c.63 0 1.27-.04 1.9-.14a6.18 6.18 0 0 0 1.41-.46zm-1.5-2.57a.63.63 0 0 0-.53.28c-.14.2-.21.42-.22.65 0 .18.07.36.22.47.2.11.43.16.67.15.38 0 .77-.1 1.11-.26a2.67 2.67 0 0 0-.52-.96.98.98 0 0 0-.74-.33zm.88-2.23c-.2.27-.43.53-.67.76a7.82 7.82 0 0 1-.74-.67c.35-.36.59-.6.72-.76.21.23.44.45.69.66zm3.9 5.44v.6s0 .08-.1.08a1.95 1.95 0 0 1-1-.23.86.86 0 0 1-.46-.66c-.1-.88-.22-2.24-.35-4.1l-.1-1.37c.21-.2.45-.4.7-.57 0 1.05.08 2.54.11 4.47v1.42c.34.19.73.28 1.12.27 0 0 .08.04.08.1z"/><path fill="#FFF" stroke="#FFF" stroke-width=".2" d="M132.36 39.87s-.08 0-.08-.08v-.63c0-.05 0-.08.08-.08.5 0 .98-.03 1.46-.1.39-.04.76-.14 1.12-.28-.08-.28-.2-.66-.38-1.12a3.1 3.1 0 0 1-.19-.68.75.75 0 0 1 .16-.49c.14-.16.3-.3.5-.41 0 .2.06.4.1.6l.14.6c0 .18.07.36.1.54v.5a2.6 2.6 0 0 1-.36 1.05 3.46 3.46 0 0 1-1.12.42 6.82 6.82 0 0 1-1.53.15zm1.71 1.3a3.83 3.83 0 0 1-.61.72 6.86 6.86 0 0 1-.69-.64c.18-.17.4-.4.67-.7l.63.62zm1.57-.14c-.18.26-.4.5-.63.7a4.94 4.94 0 0 1-.68-.62l.67-.7.65.62h-.01zm1.28.97a1.92 1.92 0 0 1-.68-.19 3.22 3.22 0 0 1-.67-.4l.13-.34c.32.08.65.12.98.13.48 0 .95-.16 1.33-.46.4-.37.7-.84.85-1.36a6.92 6.92 0 0 0-.32-.64 10.77 10.77 0 0 1-.53-1 1.87 1.87 0 0 1-.16-.65.54.54 0 0 1 .16-.42c.13-.12.27-.22.43-.3 0 .19.12.4.21.62.1.23.18.47.26.7l.24.72c.06.21.09.43.09.65a3.64 3.64 0 0 1-.3 1.49c-.18.44-.47.83-.84 1.12-.35.23-.76.35-1.18.33zm4.05-2.13a2.04 2.04 0 0 1-.94-.17.54.54 0 0 1-.33-.48.8.8 0 0 1 .2-.55c.17.14.36.25.57.31.27.08.55.11.83.1a4.77 4.77 0 0 0 1.4-.2 5.41 5.41 0 0 0-.43-.96l-.35-.65a2.23 2.23 0 0 1-.22-.46 1.12 1.12 0 0 1-.06-.38.68.68 0 0 1 .54-.68c.1.28.22.55.33.8l.33.72.25.62c.06.17.1.34.1.52 0 .15-.03.3-.09.44a4.68 4.68 0 0 1-.27.61c-.58.29-1.22.43-1.86.4zm-2.25-25.2a2.03 2.03 0 0 1-.74-.2 3.78 3.78 0 0 1-.72-.42l.15-.37c.35.07.7.11 1.05.12a2.23 2.23 0 0 0 1.43-.49c.44-.4.76-.9.92-1.46a12.17 12.17 0 0 0-.33-.7 10.16 10.16 0 0 1-.58-1.13 1.92 1.92 0 0 1-.17-.69.65.65 0 0 1 .16-.46 2 2 0 0 1 .48-.32c.06.23.14.46.23.68l.28.77c.1.25.17.5.24.76.07.23.1.47.1.7a3.88 3.88 0 0 1-.32 1.62c-.2.44-.51.83-.9 1.11-.37.3-.81.47-1.28.48zm1.67-7.55a6.1 6.1 0 0 1-.72.81 6.86 6.86 0 0 1-.8-.72c.38-.38.63-.66.78-.82.23.26.47.5.74.73zm2.86 1.55v.7c0 .72 0 1.7-.08 2.93l-.51.1a91.82 91.82 0 0 0-.3-6.51v-.15a.85.85 0 0 1 .16-.56 1 1 0 0 1 .56-.29v.14l.4 1.2-.31.26c.06.86.08 1.56.08 2.18z"/></g></g></svg>