<svg xmlns="http://www.w3.org/2000/svg" width="40" height="40"><g fill="none" fill-rule="evenodd"><path fill="none" d="M-4-4h48v48H-4z"/><path fill="#51A8DE" d="M29.97 0v19.18a3.5 3.5 0 0 0 3.5 3.49H40v1.13H20.22a3.5 3.5 0 0 0-3.49 3.5V40H4a4 4 0 0 1-4-4V25h9.27a2.3 2.3 0 0 1 2.3 2.3v3.89a3.5 3.5 0 1 0 1.2 0v-3.9a3.5 3.5 0 0 0-3.5-3.49H0v-1.76h22.5a3.5 3.5 0 0 0 3.48-3.49V14.9a3.49 3.49 0 1 0-1.2 0v3.66a2.3 2.3 0 0 1-2.29 2.3H0v-2.4h17.1a3.5 3.5 0 0 0 3.5-3.49V0h9.37ZM40 25v1.4H26.31a3.5 3.5 0 0 0-3.49 3.5v1.29a3.5 3.5 0 1 0 1.2 0v-1.3a2.3 2.3 0 0 1 2.3-2.3H40V36a4 4 0 0 1-4 4H17.93V27.3a2.3 2.3 0 0 1 2.3-2.3H40Zm-16.58 7.33a2.3 2.3 0 1 1 0 4.59 2.3 2.3 0 0 1 0-4.6Zm-11.25 0a2.3 2.3 0 1 1 0 4.59 2.3 2.3 0 0 1 0-4.6ZM36 0a4 4 0 0 1 4 4v17.47h-6.54a2.3 2.3 0 0 1-2.29-2.3V0ZM19.4 0v14.96a2.3 2.3 0 0 1-2.3 2.3H0v-1.23h11.55a3.5 3.5 0 0 0 3.5-3.49v-3.8a3.5 3.5 0 1 0-1.2 0v3.8a2.3 2.3 0 0 1-2.3 2.3H0V4a4 4 0 0 1 4-4h15.4Zm5.98 9.17a2.3 2.3 0 1 1 0 4.6 2.3 2.3 0 0 1 0-4.6ZM14.44 3.02a2.3 2.3 0 1 1 0 4.59 2.3 2.3 0 0 1 0-4.6Z"/></g></svg>