<svg xmlns="http://www.w3.org/2000/svg" width="48" height="48"><g fill="none" fill-rule="evenodd"><path fill="none" d="M0 0h48v48H0z"/><path fill="#FD0" d="M20.55 25.93c.86-.23.97-1.02 1.61-1.42a1.7 1.7 0 0 1 1.45-.16c.97.32.94 1.34 1.94 1.6.86.22 1.35-.42 2.11-.45a1.58 1.58 0 0 1 1.32.56c.67.75.14 1.61.86 2.32.64.62 1.39.3 2.06.64a1.65 1.65 0 0 1 .86 1.14c.2.97-.72 1.47-.45 2.43.23.85 1.04.95 1.45 1.57a1.58 1.58 0 0 1 .17 1.4c-.32.95-1.37.93-1.63 1.9-.24.84.41 1.32.45 2.05a1.58 1.58 0 0 1-.58 1.3c-.77.64-1.66.12-2.38.83-.64.62-.32 1.36-.66 2.01-.15.27-.37.5-.64.65-.17.09-.35.15-.54.19-.99.18-1.5-.7-2.48-.45-.86.23-.97 1.02-1.61 1.42a1.66 1.66 0 0 1-1.45.16c-.97-.32-.94-1.34-1.93-1.6-.87-.22-1.36.42-2.12.45a1.7 1.7 0 0 1-1.32-.56c-.67-.75-.13-1.61-.86-2.32-.64-.62-1.38-.3-2.06-.65-.27-.14-.5-.35-.66-.62a1.5 1.5 0 0 1-.2-.51c-.19-.97.72-1.47.45-2.43-.23-.84-1.04-.94-1.45-1.56a1.6 1.6 0 0 1-.16-1.42c.32-.94 1.37-.92 1.63-1.88.23-.84-.42-1.32-.46-2.06a1.64 1.64 0 0 1 .58-1.3c.77-.65 1.66-.13 2.38-.83.65-.62.32-1.36.65-2.01a1.67 1.67 0 0 1 1.18-.83c.99-.19 1.49.7 2.48.43h.01z"/><path fill="#5EBB5E" d="m22.73 15.98-9.16-7.5v8.03l9.44 7.72L42.23 8.48V0z"/></g></svg>