<svg xmlns="http://www.w3.org/2000/svg" width="162" height="48"><g fill="none" fill-rule="evenodd" transform="translate(1 1)"><rect width="161" height="47" x="-.5" y="-.5" fill="#0A0B09" stroke="#9D9E9A" rx="5"/><path fill="#FFF" fill-rule="nonzero" d="M34.29 36.7a.47.47 0 0 1 .47.46v2.54a.47.47 0 0 1-.47.46h-2.63a.47.47 0 0 1-.47-.46v-2.54a.47.47 0 0 1 .47-.45zm48.16 0a.47.47 0 0 1 .47.46v2.54a.47.47 0 0 1-.47.46h-7.08a.47.47 0 0 1-.47-.46v-2.54a.47.47 0 0 1 .47-.45zm-38.96 0a.47.47 0 0 1 .47.46v2.54a.47.47 0 0 1-.47.46H36.4a.47.47 0 0 1-.47-.46v-2.54a.47.47 0 0 1 .47-.45zm21.44 0a.46.46 0 0 1 .47.46v2.54a.46.46 0 0 1-.47.46h-2.61a.46.46 0 0 1-.47-.46v-2.54a.46.46 0 0 1 .47-.45zm53.46-13.5a8.88 8.88 0 0 0 1.98 10.63 16.6 16.6 0 0 0 11.13 4.25s-5.76 4.39-16.04-.76v-.02l-.02-.08c-.2-.83-1.4-6.71 2.95-14.02zm17.88-2.29s4.36 5.8-.76 16.13h-.04c-.51.14-6.5 1.59-14-2.96a8.74 8.74 0 0 0 10.57-1.98 16.76 16.76 0 0 0 4.23-11.19zm-51.68 2.63c.33 0 .6.27.6.6v2.62a7.82 7.82 0 0 1-.44 2.63.32.32 0 0 0 .3.43h19.13a.71.71 0 0 1 .62 1.04l-1.09 2.2a3.56 3.56 0 0 1-3.16 1.92H85.76a1.13 1.13 0 0 1-1.03-.67l-1.19-2.69a8.39 8.39 0 0 1-6.72 3.32h-1.27a1.13 1.13 0 0 1-1.02-.62L73.37 32a8.42 8.42 0 0 1-6.47 3H52.33a.56.56 0 0 1-.5-.8l1.67-3.36a1.79 1.79 0 0 1 1.6-.99h11.77a3.03 3.03 0 0 0 3.07-3.01V24.2a.6.6 0 0 1 .6-.6h4.1a.6.6 0 0 1 .62.6v2.66a7.82 7.82 0 0 1-.44 2.54.32.32 0 0 0 .3.42h1.77a3.04 3.04 0 0 0 3.05-3.02v-2.66c0-.33.26-.6.6-.6zM49.9 18.6c.24 0 .44.2.44.45v15.41a.5.5 0 0 1-.5.5h-4.25a.5.5 0 0 1-.5-.5V19.05a.46.46 0 0 1 .45-.45zm-9.6 11.22c.68 0 1.3.38 1.6.99l1.67 3.35a.56.56 0 0 1-.5.8H26.35a3.53 3.53 0 0 1-3.15-1.9l-1.13-2.2a.72.72 0 0 1 .65-1.04zm74.82-12.46c.35-.1 6.4-1.65 14.03 2.97a8.75 8.75 0 0 0-10.6 1.98 16.79 16.79 0 0 0-4.2 11.19s-4.32-5.8.75-16.14zm3.93-.99s5.77-4.39 16.05.76c0 0 1.79 6.22-2.95 14.12a8.88 8.88 0 0 0-1.96-10.64 16.62 16.62 0 0 0-11.14-4.24zm-93.88-5.06v2.63a3.38 3.38 0 0 1-.2 1.04c-.13.29-.3.55-.53.77-.22.22-.49.39-.78.5-.34.11-.7.17-1.06.17h-.52v-1.04h.52c.23 0 .46-.02.69-.07a1.05 1.05 0 0 0 .76-.74c.06-.24.09-.48.09-.72V11.3h1.03zm75.61 0 .04 2.63c-.02.35-.1.7-.22 1.04-.11.29-.29.55-.5.77-.23.22-.5.39-.8.5a3 3 0 0 1-1.06.17h-.5v-1.04h.5c.24 0 .47-.02.7-.07a.95.95 0 0 0 .47-.27c.13-.13.22-.3.28-.47.05-.24.07-.48.05-.72V11.3h1.04zm-5.89 3.73.71.7-.63.67-.76-.66.68-.71zm1.73 0 .7.7-.61.67-.78-.66.69-.71zM49.83 9.37l.76 2.94a1.03 1.03 0 0 0 .55.69.9.9 0 0 0 .35.11h.43v.1h.98a7.14 7.14 0 0 0 1.78-.3 5.57 5.57 0 0 0 .85-.3c.24-.09.48-.2.7-.31l-.41-.13-.5-.23-.45-.12-.42-.12-.37-.07a.91.91 0 0 0-.24 0h-.16a.3.3 0 0 0-.14.07.56.56 0 0 0-.1.14.6.6 0 0 0-.1.2l-.96-.29c.05-.16.12-.32.2-.47.07-.14.16-.26.27-.38a1.18 1.18 0 0 1 .88-.34l.33.11.44.13.55.17.58.2.56.2.5.18.36.14h.2l.13.85-.14.09-.3.2a.71.71 0 0 0 .12.2l.18.1h1.05v.05l1.4.03a.2.2 0 0 1 0-.04.17.17 0 0 1 .13 0l1.77.04a.22.22 0 0 1 .13 0h.27c.13.02.26.02.39 0a.85.85 0 0 0 .24-.13.53.53 0 0 0 .12-.2 1.56 1.56 0 0 0 0-.25v-1.27h1.02v1.2a.65.65 0 0 0 .17.47c.11.1.26.16.4.17h.27a.47.47 0 0 0 .32-.28.74.74 0 0 0 .06-.32v-1.27h1.03v1.2a.63.63 0 0 0 .16.5.72.72 0 0 0 .57.18.52.52 0 0 0 .2 0 .37.37 0 0 0 .18-.1.71.71 0 0 0 .13-.19.82.82 0 0 0 .01-.19v-1.36h1.02v1.27a.6.6 0 0 0 .19.47.99.99 0 0 0 .45.14h.36v-.04h1.27a.6.6 0 0 0 .19-.07.81.81 0 0 0 .17-.2.86.86 0 0 0 0-.34 1.53 1.53 0 0 0 0-.23v-.87c0-.09 0-.18-.07-.25v-.18l.81-.4v.4a2.36 2.36 0 0 1 0 .34l.08.4v.7c0 .24-.04.5-.14.73a1.75 1.75 0 0 1-.37.52 1.6 1.6 0 0 1-.52.29 1.47 1.47 0 0 1-.57.1h-.68v.13h-.41a2.54 2.54 0 0 1-.74-.1 1.36 1.36 0 0 1-.54-.3 1.4 1.4 0 0 1-.5.3 1.53 1.53 0 0 1-.58.1 2.16 2.16 0 0 1-.67-.1 1.34 1.34 0 0 1-.52-.3c-.15.12-.31.22-.48.3-.18.06-.36.1-.55.1a1.85 1.85 0 0 1-.68-.1 1.7 1.7 0 0 1-.52-.28 2.02 2.02 0 0 1-1.1.38h-.7v-.12h-1.47a.17.17 0 0 1-.12 0h-.01a.14.14 0 0 1-.06 0h-1.66a.14.14 0 0 1-.1 0h-.5a1.88 1.88 0 0 1-.9-.23 1.55 1.55 0 0 1-.6-.63l-.69.3a7.85 7.85 0 0 1-1.6.47c-.28.05-.56.08-.85.08h-.97v.04h-.12c-.2.02-.41.02-.62 0a2.54 2.54 0 0 1-.55-.2 1.84 1.84 0 0 1-.45-.3 1.65 1.65 0 0 1-.32-.48 1.01 1.01 0 0 1-.25.27 1.77 1.77 0 0 1-.71.32h-.38a1.69 1.69 0 0 1-.63-.12 1.46 1.46 0 0 1-.52-.33 1.52 1.52 0 0 1-.35-.52 1.71 1.71 0 0 1-.14-.7 1.75 1.75 0 0 1 .18-.78c.11-.23.26-.43.44-.6.2-.17.42-.32.66-.43a7.79 7.79 0 0 1 .75-.32l-.1-.4 1.01-.23zm39.71.19c.2 0 .4.04.6.11.16.07.3.17.44.28a2.27 2.27 0 0 1 .5.88c.06.18.1.36.12.54.02.2.02.38 0 .57v.32a2.54 2.54 0 0 1-.22.95 1.7 1.7 0 0 1-.52.6 2.3 2.3 0 0 1-.73.3c-.28.05-.56.08-.85.08H87.2v-.03h-1.48a.17.17 0 0 1-.12 0h-.02a.14.14 0 0 1-.05 0h-1.62v.04h-.56l-.33-.06-.3-.12a1.01 1.01 0 0 1-.27-.19 1.85 1.85 0 0 1-1.27.38h-4.7a1.83 1.83 0 0 1-.58-.1 1.27 1.27 0 0 1-.48-.3 1.27 1.27 0 0 1-.16-.2 1.46 1.46 0 0 1-.28-.6 1.55 1.55 0 0 1 0-.43 2.02 2.02 0 0 1 0-.46c0-.15 0-.3.09-.46.09-.15 0-.26.1-.36.1-.1 0-.18 0-.2l.5.16.49.15c0 .08 0 .16-.1.27l-.07.31V12.58a.8.8 0 0 0 0 .33.4.4 0 0 0 .14.17.3.3 0 0 0 .17.1h5.32a.44.44 0 0 0 .23-.13.42.42 0 0 0 .1-.3v-1.43H83v1.27a.75.75 0 0 0 0 .25.48.48 0 0 0 .11.17c.04.05.1.08.15.1a.4.4 0 0 0 .15.06h.3a.17.17 0 0 1 .12 0h.08l1.5.04a.2.2 0 0 1 0-.04.17.17 0 0 1 .14 0l1.77.04a.22.22 0 0 1 .13 0h1.44c.2.02.4.02.59 0a2.03 2.03 0 0 0 .38-.1.79.79 0 0 0 .21-.14.6.6 0 0 0 .12-.15c-.33.04-.66.04-1 0a1.86 1.86 0 0 1-.74-.26 1.27 1.27 0 0 1-.47-.5 1.52 1.52 0 0 1-.16-.75 1.61 1.61 0 0 1 .12-.66 1.7 1.7 0 0 1 .37-.61 1.6 1.6 0 0 1 1.23-.48zM41.7 7.58c.42-.01.83.08 1.2.25a2 2 0 0 1 .84.71c.2.3.3.66.3 1.02h-1.12a1.04 1.04 0 0 0-.32-.8 1.33 1.33 0 0 0-.91-.28c-.3-.02-.6.06-.85.23a.8.8 0 0 0-.3.66.69.69 0 0 0 .32.6 3.68 3.68 0 0 0 1.08.46c.45.12.87.29 1.27.51.27.16.5.4.67.66.15.27.22.57.22.88 0 .5-.22.97-.62 1.27a2.71 2.71 0 0 1-1.7.47c-.43 0-.86-.1-1.26-.26a2.32 2.32 0 0 1-.93-.72 1.79 1.79 0 0 1-.31-1.07h1.13c-.02.33.1.64.35.85.3.22.68.33 1.05.3.32.03.63-.05.9-.23a.77.77 0 0 0 .23-.63.77.77 0 0 0-.3-.66 3.25 3.25 0 0 0-1.08-.46 5.34 5.34 0 0 1-1.27-.54 1.65 1.65 0 0 1-.89-1.44c0-.5.24-.97.64-1.27a2.54 2.54 0 0 1 1.66-.51zm-4.44.3c.41.27.74.65.94 1.1a3.87 3.87 0 0 1 .34 1.7v.38a4.06 4.06 0 0 1-.33 1.67 2.45 2.45 0 0 1-.94 1.1 2.8 2.8 0 0 1-2.81 0 2.42 2.42 0 0 1-.96-1.09 3.8 3.8 0 0 1-.34-1.65v-.41A4.06 4.06 0 0 1 33.5 9c.2-.45.54-.84.95-1.12a2.8 2.8 0 0 1 2.82 0zm56.01.33v3.92a3.08 3.08 0 0 0 0 .54.56.56 0 0 0 .12.31.57.57 0 0 0 .29.14c.18.02.36.02.54 0v.1h1.8a.6.6 0 0 0 .18-.08l.17-.2a.86.86 0 0 0 .06-.34 1.53 1.53 0 0 0 0-.22v-.28a2.54 2.54 0 0 0 0-.3v-.73l.76-.4a.37.37 0 0 1 0 .13v1.7c0 .25-.04.5-.14.74a1.75 1.75 0 0 1-.36.52 1.6 1.6 0 0 1-.52.29 1.51 1.51 0 0 1-.58.1h-1.37v.04a4.8 4.8 0 0 1-.78 0 1.98 1.98 0 0 1-.55-.17.99.99 0 0 1-.35-.28 1.38 1.38 0 0 1-.22-.4 2.8 2.8 0 0 1-.09-.5V8.2h1.04zm9.99 1.63.29.43v.09l.13.19.21.32.33.5.58.57c.14.2.23.43.27.66a1.27 1.27 0 0 1-.56 1.2 1.89 1.89 0 0 1-.7.29 3.97 3.97 0 0 1-.7.11h-.62l-.33-.07-.34-.1-.5-.16.3-.99a7.43 7.43 0 0 0 1.48.35c.2.03.4.03.6 0a.42.42 0 0 0 .33-.25.18.18 0 0 0 0-.14.65.65 0 0 0-.09-.19l-1.55-2.24.87-.57zM27.33 8.2v5.98h-1.04V8.21h1.04zm4.85 1.1v4.82h-1.07V9.3h1.07zm2.53-.28a2.82 2.82 0 0 0-.43 1.65v.36c-.03.58.11 1.16.42 1.65.26.39.7.6 1.16.59.46.03.9-.2 1.15-.57.3-.5.44-1.08.4-1.67v-.36a2.88 2.88 0 0 0-.4-1.65 1.33 1.33 0 0 0-1.16-.57 1.27 1.27 0 0 0-1.14.57zm14.49 1.99a3.35 3.35 0 0 0-1 .48.8.8 0 0 0-.35.66.47.47 0 0 0 .08.27c.04.08.1.15.18.2a.71.71 0 0 0 .24.11.63.63 0 0 0 .26 0c.19-.02.37-.08.52-.17a.67.67 0 0 0 .24-.44h.02a.75.75 0 0 0 0-.24 1.56 1.56 0 0 0 0-.24c0-.09 0-.19-.1-.29-.08-.1 0-.22-.1-.34zm83.41-5.18s-.44 7.18-7.82 6.56V12.3c.12-.87 1.06-6.32 7.82-6.45zM89.3 10.6a.6.6 0 0 0-.26.12.53.53 0 0 0-.16.2.5.5 0 0 0-.06.29.53.53 0 0 0 .38.52 1.98 1.98 0 0 0 1.09 0v-.38a1.86 1.86 0 0 0-.1-.39.76.76 0 0 0-.2-.29.75.75 0 0 0-.4-.07 1.1 1.1 0 0 0-.3 0zm-9.5-1.03.72.7-.71.72-.7-.71.69-.71zm-1.74 0 .7.72-.69.7-.7-.7.69-.72zm-53.41-.79.76.76-.76.76-.75-.76.75-.76zm46-.52.76.76-.76.75-.75-.76.75-.75zm-17-.1.77.76-.76.75-.75-.76.74-.75zm35.75-.95.77.77-.76.75-.75-.76.74-.76zm-57.71.23c.35 0 .63.28.63.63a.57.57 0 0 1-.15.4.71.71 0 0 1-.91 0 .57.57 0 0 1-.2-.4c0-.35.28-.63.63-.63z"/></g></svg>