<svg xmlns="http://www.w3.org/2000/svg" fill="none" viewBox="0 0 162 48"><path fill="#0A0B09" stroke="#9D9E9A" d="M156.5.5H5.5a5 5 0 0 0-5 5v37a5 5 0 0 0 5 5h151a5 5 0 0 0 5-5v-37a5 5 0 0 0-5-5Z"/><path fill="#fff" fill-rule="evenodd" d="M91.5 16a.5.5 0 1 1 0 1 .5.5 0 0 1 0-1Zm1 0a.5.5 0 1 1 0 1 .5.5 0 0 1 0-1ZM30 12v2.62c-.02.34-.09.67-.2.98-.11.29-.28.54-.5.76-.2.2-.47.37-.75.48-.32.1-.66.16-1 .16H27v-.9h.56c.23.01.47-.01.7-.07.17-.05.34-.15.47-.28.14-.13.24-.3.28-.48.08-.23.11-.48.1-.73V12H30Zm67 0v2.62c-.01.34-.08.67-.2.98a2.12 2.12 0 0 1-1.24 1.24c-.33.1-.66.16-1 .16H94v-.9h.56c.23.01.46-.01.69-.07a1.16 1.16 0 0 0 .49-.28 1.24 1.24 0 0 0 .28-.48c.07-.24.1-.48.1-.73V12H97ZM31.89 9v6h-.78V9h.78Zm5.08 1v5h-.93v-5h.93Zm17.9 0 .72 3.13a1.17 1.17 0 0 0 .94.92H57V15h-.18c-.21 0-.42-.02-.62-.07a2.77 2.77 0 0 1-.55-.21 2.12 2.12 0 0 1-.44-.36 1.64 1.64 0 0 1-.31-.49 1.22 1.22 0 0 1-.26.33 2.12 2.12 0 0 1-.38.25 1.86 1.86 0 0 1-.55.13h-.16c-.14.02-.27.02-.4 0a1.47 1.47 0 0 1-.43-.2 1.71 1.71 0 0 1-.37-.35c-.12-.14-.2-.3-.26-.49a2.1 2.1 0 0 1-.09-.6 1.94 1.94 0 0 1 .17-.84 2.54 2.54 0 0 1 .45-.66c.2-.19.42-.35.65-.47.25-.14.5-.25.76-.35a1.57 1.57 0 0 1 0-.2v-.21l.83-.21Zm36.1-1v4.6a.6.6 0 0 0 .14.34c.08.09.19.14.3.16.2.02.4.02.59 0v.11h1.02a.43.43 0 0 0 .33-.25.57.57 0 0 0 .07-.32 1.75 1.75 0 0 0 0-.2v-.54l-.06-.27a1.38 1.38 0 0 0 0-.23.77.77 0 0 0 0-.15l.52-.25v.36c0 .09 0 .19.06.3L94 13v.62c0 .2-.04.42-.12.61a1.43 1.43 0 0 1-.3.44 1.47 1.47 0 0 1-.41.25c-.15.05-.3.08-.47.08H92a5.13 5.13 0 0 1-.8-.06 1.73 1.73 0 0 1-.54-.16.99.99 0 0 1-.56-.66 2.09 2.09 0 0 1-.1-.51V9h.97Zm8.2 2 .26.34v.07l.2.26.39.51.65.86c.15.19.25.4.32.6v.27a.82.82 0 0 1-.08.38 1.11 1.11 0 0 1-.5.46 2.15 2.15 0 0 1-1.09.2l-.25.05h-.76l-.3-.12-.33-.07-.28-.1-.4-.2.46-.7.4.2c.1.05.22.1.34.12l.45.06h.9c.14-.01.28-.04.4-.1a.17.17 0 0 0 .16-.1.13.13 0 0 0 0-.06.43.43 0 0 0 0-.14 1.59 1.59 0 0 0-.18-.29l-.66-.86-.4-.53-.2-.26v-.07l-.27-.34.77-.44Zm-39.48 1c.16 0 .31.03.46.07l.4.12.37.12.37.11.44.15.6.2.8.25.1.65-.22.12-.39.2a.43.43 0 0 0 .31.24H64v-.19h.51c.14.02.29.02.43 0a.58.58 0 0 0 .26-.15.52.52 0 0 0 .13-.21 2.65 2.65 0 0 0 0-.3V12h.9v1.3a.74.74 0 0 0 .2.56.75.75 0 0 0 .55.18h.16a.47.47 0 0 0 .2-.11.74.74 0 0 0 .15-.27 1.13 1.13 0 0 0 .06-.37V12h.91v1.3a.76.76 0 0 0 .18.56c.16.13.37.2.58.18a.67.67 0 0 0 .2 0 .44.44 0 0 0 .2-.12.58.58 0 0 0 .14-.22.84.84 0 0 0 .07-.32V12h.91v1.35a.62.62 0 0 0 .21.52c.15.1.32.16.49.17H72v.17h.45a.68.68 0 0 0 .23-.07.64.64 0 0 0 .2-.18.55.55 0 0 0 .08-.32 1.34 1.34 0 0 0 0-.2v-.54l-.08-.27a1.62 1.62 0 0 1 0-.23v-.15l.87-.25v.12c0 .07 0 .14.08.23.08.1 0 .2.08.32.07.12 0 .22.06.33.07.11 0 .23 0 .33v.29a1.19 1.19 0 0 1-.15.61 1.32 1.32 0 0 1-.4.44c-.16.1-.34.2-.54.25a2.45 2.45 0 0 1-.6.08H71v-.07a2.42 2.42 0 0 1-.18-.05 1.25 1.25 0 0 1-.53-.34 1.17 1.17 0 0 1-.47.34 1.6 1.6 0 0 1-.58.1 1.95 1.95 0 0 1-.69-.1 1.49 1.49 0 0 1-.52-.33 1.57 1.57 0 0 1-.54.33 1.48 1.48 0 0 1-.54.12c-.23 0-.46-.03-.68-.12a1.51 1.51 0 0 1-.5-.3c-.18.15-.38.25-.6.3a2.22 2.22 0 0 1-.75.1H64V15h-.76a2.2 2.2 0 0 1-.58-.08 1.66 1.66 0 0 1-.47-.23 1.12 1.12 0 0 1-.34-.38h-.06a9.84 9.84 0 0 1-.89.33c-.32.1-.66.18-1 .24-.33.07-.68.1-1.03.1H57v-.77h1.87c.2.02.4.02.59 0l.6-.09c.2 0 .38-.08.57-.14l.57-.17.51-.19c.14-.06.28-.12.42-.2l-1.99-.6a1.5 1.5 0 0 0-.32 0 .65.65 0 0 0-.25 0 .61.61 0 0 0-.2.18 1.12 1.12 0 0 0-.15.25l-.8-.25c.06-.16.14-.3.24-.45a1.26 1.26 0 0 1 .35-.35c.15-.1.32-.17.5-.2h.18ZM40.5 9a2.3 2.3 0 0 1 2.16 1.31c.22.47.33.98.32 1.5l.02.37a3.4 3.4 0 0 1-.3 1.49 2.23 2.23 0 0 1-.88.99 2.47 2.47 0 0 1-1.31.34 2.49 2.49 0 0 1-1.3-.34 2.28 2.28 0 0 1-.9-.98 3.34 3.34 0 0 1-.3-1.48v-.32a3.46 3.46 0 0 1 .3-1.5 2.27 2.27 0 0 1 .88-1.04c.4-.23.85-.35 1.31-.34Zm46.83 2a1.66 1.66 0 0 1 1.04.34c.12.1.22.23.3.36a2.3 2.3 0 0 1 .32.89v.99c0 .16-.02.32-.1.48a1.31 1.31 0 0 1-.62.63 2.47 2.47 0 0 1-.5.17 3.12 3.12 0 0 1-1.14.1L85 15h-.57l-.3-.1a.79.79 0 0 1-.25-.12.9.9 0 0 1-.24-.18 1.64 1.64 0 0 1-1.17.4h-5.08a1.38 1.38 0 0 1-.53-.1 1.23 1.23 0 0 1-.45-.29l-.15-.17a1.14 1.14 0 0 1-.14-.26 1.24 1.24 0 0 1-.1-.32 1.62 1.62 0 0 1 0-.4 2.15 2.15 0 0 1 0-.45c0-.16.05-.3.08-.45a6.22 6.22 0 0 1 .1-.37 1.08 1.08 0 0 1 0-.19l.4.13.4.13a1.56 1.56 0 0 1-.07.22c0 .1 0 .21-.08.32a2.05 2.05 0 0 0-.06.35 1.85 1.85 0 0 0 0 .3c0 .13.02.26.07.38.04.08.1.15.18.2a.38.38 0 0 0 .2.09h5.19a1.22 1.22 0 0 0 .45-.07.55.55 0 0 0 .23-.15.39.39 0 0 0 .09-.18v-1.44h.84v1.29a.53.53 0 0 0 .08.3.6.6 0 0 0 .19.18.71.71 0 0 0 .22.07h.16l.31.02v.07h1.71c.24 0 .47-.01.7-.05.14-.02.28-.06.41-.11a.75.75 0 0 0 .23-.15.6.6 0 0 0 .09-.18h-.55a4.33 4.33 0 0 1-.76-.06 1.95 1.95 0 0 1-.61-.2 1.12 1.12 0 0 1-.56-1.02 1.26 1.26 0 0 1 .09-.57c.08-.17.2-.32.36-.45a1.66 1.66 0 0 1 1.13-.41h.09Zm-40.7-2c.42 0 .83.08 1.2.22.35.14.65.36.86.64.2.27.32.6.31.92h-1.2a.83.83 0 0 0-.34-.71 1.45 1.45 0 0 0-.94-.26 1.6 1.6 0 0 0-.87.2.68.68 0 0 0-.33.6c0 .22.14.43.35.54.35.19.72.33 1.12.42.42.1.83.26 1.2.46.29.14.53.34.7.59.15.24.23.5.23.78.04.45-.17.88-.56 1.17a3.1 3.1 0 0 1-1.74.43 3.68 3.68 0 0 1-1.33-.23 2.27 2.27 0 0 1-.95-.65 1.44 1.44 0 0 1-.34-.97h1.2a.9.9 0 0 0 .38.78 1.87 1.87 0 0 0 1.08.27 1.56 1.56 0 0 0 .91-.22.66.66 0 0 0 .32-.57.7.7 0 0 0-.3-.6 4.25 4.25 0 0 0-1.13-.41 5.2 5.2 0 0 1-1.28-.47c-.56-.26-.9-.76-.91-1.31-.01-.46.23-.9.64-1.17A2.99 2.99 0 0 1 46.63 9Zm-6.97 1.12a1.33 1.33 0 0 0-.29.27 2.36 2.36 0 0 0-.38 1.46v.33a2.45 2.45 0 0 0 .37 1.48c.25.34.66.53 1.09.52a1.26 1.26 0 0 0 1.08-.51c.27-.45.4-.97.36-1.49l.03-.31a2.43 2.43 0 0 0-.38-1.48 1.38 1.38 0 0 0-1.88-.27Zm14.58 1.4a2.73 2.73 0 0 0-1.07.58 1.09 1.09 0 0 0-.37.8.7.7 0 0 0 .1.39.73.73 0 0 0 .64.38.77.77 0 0 0 .33-.07.9.9 0 0 0 .38-.25.82.82 0 0 0 .26-.47h-.05a1.27 1.27 0 0 0 0-.2v-.19c0-.08 0-.17-.06-.29-.06-.12 0-.23-.08-.35a3.28 3.28 0 0 1-.08-.33Zm33.09.28h-.27a.62.62 0 0 0-.24.1.66.66 0 0 0-.18.2.73.73 0 0 0-.06.3c0 .1.03.2.1.28a.63.63 0 0 0 .24.16c.1.04.22.07.33.08h.93v-.35a1.35 1.35 0 0 0-.08-.38.7.7 0 0 0-.23-.29.83.83 0 0 0-.54-.1ZM78.5 11a.5.5 0 1 1 0 1 .5.5 0 0 1 0-1Zm2 0a.5.5 0 1 1 0 1 .5.5 0 0 1 0-1Zm-22-1a.5.5 0 1 1 0 1 .5.5 0 0 1 0-1Zm-29 0a.5.5 0 1 1 0 1 .5.5 0 0 1 0-1Zm43 0a.5.5 0 1 1 0 1 .5.5 0 0 1 0-1Zm-36-1a.5.5 0 1 1 0 1 .5.5 0 0 1 0-1Zm49 0a.5.5 0 1 1 0 1 .5.5 0 0 1 0-1ZM55.55 36.74c.69 0 1.02.36 1 1.06-.03.54-.26.83-.74.9-.16.2-.43.3-.82.3-.67 0-.97-.28-.99-.94-.02-.63.23-.97.76-1.04.17-.2.43-.28.79-.28Zm-27.72-7.3c.36-.89.4-.89 1.31-.43.1.05.21.11.32.15.48.19.6.52.38.97l.03-.08a.95.95 0 0 1-.1.33 6.92 6.92 0 0 0-.46 1.22 14.36 14.36 0 0 0-.24 1.18c-.26 1.6.56 3.42 1.95 3.75a9.5 9.5 0 0 0 5.12-.06 5.78 5.78 0 0 0 .22-.08c.15-.06.28-.15.4-.24.6-.48.58-.9-.11-1.24a4.7 4.7 0 0 0-2.05-.47c-.32 0-.67-.1-.72-.47-.07-.5-.16-1.02.13-1.47a.35.35 0 0 1 .13-.12l.04-.08c.17-.26.52-.15.8-.15h9.54c.3 0 .72-.1.81.31.11.5.2 1.05-.1 1.52-.1.16-.27.18-.45.17l.02-.03c-.16.25-.5.15-.77.15l-4.13.01a5.45 5.45 0 0 0-.36.01c-.04.11.02.3.12.65.27.87-.07 1.58-.58 2.23a4 4 0 0 1-2.12 1.32 13.1 13.1 0 0 1-3.59.51 10.55 10.55 0 0 1-2.7-.32c-2.28-.58-3.57-2.39-3.66-4.73a8.57 8.57 0 0 1-.01-.45c-.01-1.42.31-2.75.83-4.05Zm30.75 7.3c.45-.03.76.09.94.35.3.14.47.43.48.87.02.67-.26 1-.9 1.03-.48.04-.8-.08-.96-.36-.3-.13-.45-.42-.46-.86-.01-.66.28-.99.9-1.03Zm9.42 0c.71-.05 1.08.27 1.1.95.01.27-.03.49-.13.65-.09.41-.37.62-.87.66-.73.05-1.08-.26-1.1-.95 0-.28.04-.5.14-.66.09-.4.37-.62.86-.65Zm12.57 0c.44-.03.75.09.92.34.33.13.5.43.5.9.03.66-.26.98-.9 1.02-.47.02-.78-.09-.94-.36-.32-.13-.48-.42-.48-.88-.01-.66.27-.98.9-1.02Zm3.45 0c.7-.01 1.04.33 1.03 1.03 0 .14-.02.27-.06.38l.01-.11c-.01.65-.32.95-.98.96-.72.01-1.04-.31-1.02-1.03 0-.14.02-.27.05-.38.05-.57.36-.84.97-.85Zm-30.56-8.3c.16.15.18.44.2.98 0 .4-.03.8 0 1.2l.04.37c.23.43.66.63 1.38.67.87.04 1.74 0 2.61.01 1.22.01 1.4.18 1.28 1.24v.12c0 .15-.02.33-.05.53-.04.4-.22.57-.6.57h-2.17l-.12.01h-.12c-.69 0-1.46-.2-2.02.07-.53.25-.44 1.14-.7 1.71-.87 1.93-2.73 3-5.26 2.8-.4-.03-.58-.22-.57-.6v-.18c-.25-.08-.36-.26-.36-.55v-.69c-.01-.43.2-.64.67-.63.54.02 1.07-.07 1.6-.16 1.11-.2 1.75-.76 2-1.8.15-.64.18-1.29.18-1.94 0-1.12-.02-2.23 0-3.35.01-.76.06-.78.84-.81.84-.03 1.1 0 1.17.43Zm47.27-1.69c.2 1.05.26 2.1.27 3.16v.36a3.94 3.94 0 0 1-4.49 3.93l-.21-.02a4.65 4.65 0 0 1-2.14-.74c-.23-.16-.4-.15-.64 0-1.65 1.05-3.35.96-5.04.13-.38-.18-.66-.2-1 .02a6 6 0 0 1-3.25.73H65.46a.5.5 0 0 1-.18-.04c-.97-.4-.4-1.25-.52-1.9-.07-.33.04-.57.3-.67.05-.28.3-.42.67-.42H84.53c1.15 0 1.76-.23 2.05-.9.07-.29.1-.64.1-1.07l.01-1.93c0-.16.04-.29.12-.38a.2.2 0 0 0 0-.03c0-.34.16-.53.5-.54h.12c1.95-.2 2-.16 2 1.83 0 .53-.01 1.07.02 1.6.07.86.62 1.35 1.52 1.39.71.03 1.3-.33 1.5-.98.08-.6.04-1.2.05-1.8a18.3 18.3 0 0 0 0-.97.78.78 0 0 1 .07-.38v-.02c-.01-.45.17-.64.63-.68 1.95-.19 2-.15 2.01 1.84 0 .4-.02.82 0 1.22.07 1.13.76 1.84 1.72 1.8.78-.04 1.4-.67 1.53-1.52a1.88 1.88 0 0 0-.02-.2 23.83 23.83 0 0 0-.52-2.72c-.07-.25-.08-.44-.02-.6-.06-.4.06-.64.54-.82 1.87-.71 1.87-.7 2.27 1.32ZM60.94 22l.55.01a.68.68 0 0 1 .13.01h.14c.35.01.51.2.52.53V32.9c0 .39.18.91-.22 1.12-.5.26-1.1.18-1.64.04a.33.33 0 0 1-.26-.22c-.2-.13-.15-.44-.15-.67v-5.34c0-1.62-.02-3.24 0-4.86 0-.96.01-.97.93-.97Zm-14.1 0 .67.01h.1l.38.02c.34 0 .5.18.52.51v11.07c-.02.34-.2.51-.54.52h-.36c-.63.03-.94.03-1.1-.14-.48-.04-.5-.27-.5-1.13v-4.88c0-1.7-.02-3.41 0-5.12 0-.84.02-.84.83-.86ZM44 23.02c0 .65-.3.96-.95.98-.4.01-.67-.08-.84-.27-.16-.17-.23-.41-.23-.75.01-.66.3-.96.95-.98h.02c.7-.02 1.05.31 1.05 1.01Zm90.56 9.74c-.97.99-1.93 2.02-3.05 2.8-.9.63-2 .54-3.05-.02a6.64 6.64 0 0 0-5.95-.18c-2.07.88-3.85.57-5.28-1.14-3-3.59-3.8-7.8-2.86-12.3.64-3.03 4.94-4.84 7.7-3.44a6.72 6.72 0 0 0 6.7-.07c1.57-.86 5.06-.04 6.23 1.45-1.62 1.15-2.89 2.56-3.25 4.62a6.45 6.45 0 0 0 2.56 6.58c.79.61.81 1.11.25 1.7Zm-7.09-17.03c4.05-2.28 10.73 1.07 11.53 5.88-.53.14-1.07.28-1.62.4a3.85 3.85 0 0 0-3.14 3.72 4 4 0 0 0 2.84 3.75c1.71.51 1.71.51 1.06 2.18-1.21 3.13-3 5.74-6.28 6.91-1.58.56-3.12.65-4.66-.3a3.83 3.83 0 0 0-4.06-.03c-2.36 1.36-4.53.73-6.55-.63-3.1-2.08-4.45-5.32-5.29-8.85-.83-3.51-.84-7.28 1.35-10.3 2.29-3.12 7.23-4.19 10.67-2.49 1.43.7 2.77.53 4.15-.24Zm2.9-6.73c1 2.5 1 2.5-1.39 3.93-1.18.7-2.4 1.38-3.6 2.07l-.38-.28 1.68-5.62 1.88 1.65 1.3-1.75h.51Z" clip-rule="evenodd"/></svg>