<svg xmlns="http://www.w3.org/2000/svg" width="162" height="48"><g fill="none" fill-rule="evenodd" transform="translate(1 1)"><rect width="161" height="47" x="-.5" y="-.5" fill="#0A0B09" stroke="#9D9E9A" rx="5"/><path fill="#FFF" d="M63 34.54A2.23 2.23 0 0 1 63 39a2.22 2.22 0 0 1-2.23-2.23c0-1.23 1-2.23 2.22-2.23zm5.79 0c1.17 0 2.13.92 2.21 2.07v.16C71 38 70.02 39 68.8 39a2.22 2.22 0 0 1-2.22-2.23c0-1.23 1-2.23 2.22-2.23zm4.43 0a2.22 2.22 0 0 1 0 4.46A2.22 2.22 0 0 1 71 36.77c0-1.23 1-2.23 2.22-2.23zm-24.88 0c1.17 0 2.13.92 2.21 2.07v.16c0 1.23-.99 2.23-2.21 2.23a2.22 2.22 0 0 1-2.22-2.23c0-1.23 1-2.23 2.22-2.23zm-4.44 0c1.17 0 2.13.92 2.21 2.07v.16c0 1.23-.99 2.23-2.21 2.23a2.22 2.22 0 0 1-2.22-2.23c0-1.23 1-2.23 2.22-2.23zm8.88 0a2.22 2.22 0 0 1 0 4.46 2.22 2.22 0 0 1-2.23-2.23c0-1.23 1-2.22 2.21-2.23h.01zm76.3-17.37a12 12 0 0 1 4.72 7.68c.64 3.42-.26 6.94-2.45 9.62l-.08.1a.62.62 0 0 1-.86.1.73.73 0 0 1-.13-.14 18.5 18.5 0 0 1-2.52-4.8 16.22 16.22 0 0 1-.35-3.26 5.38 5.38 0 0 0-2.83-4.4 5.45 5.45 0 0 0-7.4 2.23 5.53 5.53 0 0 0 3.23 7.9 5.67 5.67 0 0 0 4.1-.42.62.62 0 0 1 .8.25l2.67 4.65a.62.62 0 0 1-.23.83 12.35 12.35 0 0 1-8.87 1.12 12.3 12.3 0 0 1-7.14-5.39 12.2 12.2 0 0 1-1.59-8.21c1.26-8.7 11.83-13.26 18.92-7.86zm-95.9 3.84a7.2 7.2 0 0 1 6.93 5.48c.36 1.42.34 2.23 1.54 2.23H54.6a.34.34 0 0 0 .33-.33v-.7c0-1.24-1-2.23-2.22-2.23h-5.76A4.43 4.43 0 0 1 43.53 24a5.4 5.4 0 0 1-.63-2.33v-.09a.51.51 0 0 1 .47-.55h9.22a7.28 7.28 0 0 1 4.65 1.22 6.36 6.36 0 0 1 2.22 4.95v5.46a.52.52 0 0 1-.51.51H40.33a4.56 4.56 0 0 1-4.44-4.62v-.68a2.52 2.52 0 0 0-2.73-2.4 2.56 2.56 0 0 0-2.72 2.39V28.56c0 3.93-2.05 4.62-3.93 4.62-.45 0-.5-.13-.5-.51V28.1a7.2 7.2 0 0 1 7.17-7.1zm28.1-.01 3.41.01c.29 0 .52.23.52.51V31a2.22 2.22 0 0 1-2.12 2.17h-1.8a.52.52 0 0 1-.51-.51V21.5a.52.52 0 0 1 .5-.51zm9.22.01c.28 0 .5.23.5.51v6.7a.52.52 0 0 0 .53.5h27.95a.51.51 0 0 1 .52.5V31a2.22 2.22 0 0 1-2.1 2.17H66.9a.33.33 0 0 1-.33-.33v-11.3c0-.28.23-.5.5-.5L70.5 21zm20-6.01a.5.5 0 1 1 0 1 .5.5 0 0 1 0-1zm1 0a.5.5 0 1 1 0 1 .5.5 0 0 1 0-1zM29 11v2.62c-.02.34-.09.67-.2.98-.11.29-.28.54-.5.76-.2.2-.47.37-.75.48-.32.1-.66.16-1 .16H26v-.9h.56c.23.01.47-.01.7-.07.17-.05.34-.15.47-.28.14-.13.24-.3.28-.48.08-.23.11-.48.1-.73V11H29zm67 0v2.62a2.92 2.92 0 0 1-.2.98 2.12 2.12 0 0 1-1.24 1.24c-.33.1-.66.16-1 .16H93v-.9h.56c.23.01.46-.01.69-.07.18-.05.35-.15.49-.28.13-.13.23-.3.28-.48.07-.24.1-.48.1-.73V11H96zM35.97 9v5h-.93V9h.93zm-5.08-1v6h-.78V8h.78zm27.8 3c.16 0 .31.03.46.07l.4.12.37.12.37.11.44.15.6.2.8.25.1.65-.22.12-.39.2a.43.43 0 0 0 .31.24H63v-.19h.51c.14.02.29.02.43 0a.58.58 0 0 0 .26-.15.52.52 0 0 0 .13-.21 2.64 2.64 0 0 0 0-.3V11h.9v1.3c-.01.2.06.4.2.56a.75.75 0 0 0 .55.18h.16a.47.47 0 0 0 .2-.11.74.74 0 0 0 .15-.27c.04-.12.06-.25.06-.37V11h.91v1.3a.76.76 0 0 0 .18.56c.16.13.37.2.58.18h.2a.44.44 0 0 0 .2-.12.58.58 0 0 0 .14-.22.84.84 0 0 0 .07-.32V11h.91v1.35a.62.62 0 0 0 .21.52c.15.1.32.16.49.17H71v.17h.45a.68.68 0 0 0 .23-.07.64.64 0 0 0 .2-.18.55.55 0 0 0 .08-.32 1.33 1.33 0 0 0 0-.2v-.54l-.08-.27a1.6 1.6 0 0 1 0-.23v-.15l.87-.25v.12c0 .07 0 .14.08.24.08.09 0 .19.08.3.07.13 0 .23.06.34.07.11 0 .23 0 .33v.29a1.19 1.19 0 0 1-.15.61 1.32 1.32 0 0 1-.4.44c-.15.1-.34.2-.54.25a2.45 2.45 0 0 1-.6.08H70v-.07a2.44 2.44 0 0 1-.18-.05 1.25 1.25 0 0 1-.53-.34 1.17 1.17 0 0 1-.47.34 1.6 1.6 0 0 1-.58.1 1.95 1.95 0 0 1-.69-.1 1.49 1.49 0 0 1-.52-.33 1.57 1.57 0 0 1-.54.33c-.17.07-.36.12-.54.12-.23 0-.46-.03-.68-.12a1.51 1.51 0 0 1-.5-.3c-.18.15-.38.25-.6.3a2.22 2.22 0 0 1-.75.1H63V14h-.76a2.2 2.2 0 0 1-.58-.08 1.66 1.66 0 0 1-.47-.23 1.12 1.12 0 0 1-.34-.38h-.06a9.85 9.85 0 0 1-1.88.57c-.34.07-.69.1-1.04.1H56v-.77h1.87c.2.02.4.02.59 0l.6-.09c.2 0 .38-.08.57-.14l.57-.17.51-.19c.14-.06.28-.12.42-.2l-1.99-.6a1.5 1.5 0 0 0-.32 0 .65.65 0 0 0-.25 0 .61.61 0 0 0-.2.18c-.06.08-.11.16-.15.25l-.8-.25a1.77 1.77 0 0 1 .59-.8c.15-.1.32-.17.5-.2h.18zm39.48-1 .26.34v.07l.2.26.39.5.66.87c.14.19.24.4.31.6v.27a.82.82 0 0 1-.08.38 1.1 1.1 0 0 1-.5.46 2.15 2.15 0 0 1-1.09.2l-.25.05h-.76l-.3-.12-.33-.07-.28-.1-.4-.2.46-.7.4.2c.1.05.22.1.34.12l.45.06h.9a1.32 1.32 0 0 0 .4-.1.17.17 0 0 0 .16-.1.14.14 0 0 0 0-.06.42.42 0 0 0 0-.14 1.62 1.62 0 0 0-.18-.29l-.66-.86-.4-.53-.2-.26v-.07l-.27-.34.77-.44zm-44.3-1 .72 3.13a1.17 1.17 0 0 0 .94.92H56V14h-.18c-.21 0-.42-.02-.62-.07a2.77 2.77 0 0 1-.55-.21 2.12 2.12 0 0 1-.44-.36 1.64 1.64 0 0 1-.31-.49 1.22 1.22 0 0 1-.26.33 2.12 2.12 0 0 1-.38.25 1.86 1.86 0 0 1-.55.13h-.16c-.14.02-.27.02-.4 0a1.47 1.47 0 0 1-.43-.2 1.71 1.71 0 0 1-.37-.35 1.5 1.5 0 0 1-.26-.49 2.1 2.1 0 0 1-.09-.6 1.94 1.94 0 0 1 .17-.84c.12-.24.27-.46.45-.66.2-.19.42-.35.65-.47.25-.14.5-.25.76-.35a1.56 1.56 0 0 1 0-.2V9.2l.83-.21zm36.1-1v4.6a.6.6 0 0 0 .14.34c.08.09.19.14.3.16.2.02.4.02.59 0v.11h1.02a.43.43 0 0 0 .33-.25.57.57 0 0 0 .07-.32 1.72 1.72 0 0 0 0-.2v-.54l-.06-.27a1.39 1.39 0 0 0 0-.23.78.78 0 0 0 0-.15l.52-.25v.36c0 .09 0 .19.06.3L93 12v.62a1.43 1.43 0 0 1-.41 1.05 1.47 1.47 0 0 1-.42.25c-.15.05-.3.08-.47.08H91a5.13 5.13 0 0 1-.8-.06 1.73 1.73 0 0 1-.54-.16.99.99 0 0 1-.56-.66 2.08 2.08 0 0 1-.1-.51V8h.97zM45.63 8c.42 0 .83.08 1.2.22.35.14.65.36.86.64.2.27.32.6.31.92h-1.2a.83.83 0 0 0-.34-.7 1.45 1.45 0 0 0-.94-.27 1.6 1.6 0 0 0-.87.2.68.68 0 0 0-.33.6c0 .22.14.43.35.54.35.2.72.33 1.12.42.42.1.82.26 1.2.46.29.14.53.34.7.59.15.24.23.5.23.78.04.45-.17.88-.56 1.17a3.1 3.1 0 0 1-1.74.43 3.67 3.67 0 0 1-1.33-.23 2.27 2.27 0 0 1-.95-.65 1.44 1.44 0 0 1-.34-.97h1.2a.9.9 0 0 0 .37.78 1.87 1.87 0 0 0 1.09.27 1.56 1.56 0 0 0 .91-.22.66.66 0 0 0 .32-.57.7.7 0 0 0-.3-.6 4.24 4.24 0 0 0-1.13-.41 5.21 5.21 0 0 1-1.28-.47c-.56-.26-.9-.76-.92-1.31 0-.46.24-.9.65-1.17A2.99 2.99 0 0 1 45.63 8zM39.5 8a2.3 2.3 0 0 1 2.16 1.31c.22.47.33.98.32 1.5l.02.37a3.4 3.4 0 0 1-.3 1.49c-.19.4-.5.75-.88.99a2.47 2.47 0 0 1-1.31.34 2.49 2.49 0 0 1-1.3-.34 2.28 2.28 0 0 1-.9-.98 3.34 3.34 0 0 1-.3-1.48v-.32a3.46 3.46 0 0 1 .3-1.5 2.27 2.27 0 0 1 .88-1.04c.4-.23.85-.35 1.31-.34zm46.83 2a1.66 1.66 0 0 1 1.04.34c.12.1.22.23.3.36a2.3 2.3 0 0 1 .32.89 3.27 3.27 0 0 1 0 .49v.5a1.05 1.05 0 0 1-.1.48 1.3 1.3 0 0 1-.62.63 2.47 2.47 0 0 1-.5.17 3.12 3.12 0 0 1-1.14.1L84 14h-.57l-.3-.1a.79.79 0 0 1-.25-.12.9.9 0 0 1-.24-.18 1.64 1.64 0 0 1-1.17.4h-5.08a1.38 1.38 0 0 1-.53-.1 1.23 1.23 0 0 1-.45-.29l-.15-.17a1.14 1.14 0 0 1-.14-.26 1.24 1.24 0 0 1-.1-.32 1.61 1.61 0 0 1 0-.4 2.15 2.15 0 0 1 0-.45c0-.16.05-.3.08-.45l.1-.37a1.09 1.09 0 0 1 0-.19l.4.13.4.13a1.56 1.56 0 0 1-.07.22c0 .1 0 .21-.08.32a2.05 2.05 0 0 0-.06.35 1.84 1.84 0 0 0 0 .3c0 .13.02.26.07.38.04.08.1.15.18.2a.38.38 0 0 0 .2.09h5.19a1.24 1.24 0 0 0 .45-.07.55.55 0 0 0 .23-.15.39.39 0 0 0 .09-.18v-1.44h.84v1.29a.53.53 0 0 0 .08.3.6.6 0 0 0 .19.18.71.71 0 0 0 .22.07h.16l.31.02v.07h1.71c.24 0 .47-.01.7-.05.14-.02.28-.06.41-.11a.75.75 0 0 0 .23-.15.6.6 0 0 0 .09-.18h-.55a4.33 4.33 0 0 1-.76-.06 1.95 1.95 0 0 1-.61-.2 1.12 1.12 0 0 1-.56-1.02 1.26 1.26 0 0 1 .09-.57c.08-.17.2-.32.36-.45a1.66 1.66 0 0 1 1.13-.41h.09zm44.48-2.92v.03h.14a.6.6 0 0 1 .55.65v.01a.55.55 0 0 1 0 .2 8.51 8.51 0 0 1-3.32 4.08 9.01 9.01 0 0 1-5.7 1.12h-.13a.6.6 0 0 1-.55-.64v-.03a.85.85 0 0 1 0-.17 8.41 8.41 0 0 1 3.25-4.1 9.02 9.02 0 0 1 5.77-1.15zM38.66 9.12a1.33 1.33 0 0 0-.28.27 2.36 2.36 0 0 0-.4 1.46v.33a2.45 2.45 0 0 0 .38 1.48c.25.34.66.53 1.09.52a1.26 1.26 0 0 0 1.08-.51c.27-.45.4-.97.36-1.49l.03-.31a2.43 2.43 0 0 0-.38-1.48 1.38 1.38 0 0 0-1.88-.27zm14.58 1.4c-.4.1-.76.3-1.07.58a1.09 1.09 0 0 0-.37.8.7.7 0 0 0 .1.39.73.73 0 0 0 .64.38.77.77 0 0 0 .33-.06.9.9 0 0 0 .38-.26.82.82 0 0 0 .26-.46h-.05v-.4c0-.08 0-.17-.06-.29-.06-.12 0-.23-.08-.35a3.27 3.27 0 0 1-.08-.33zm33.09.28h-.27a.62.62 0 0 0-.42.3.73.73 0 0 0-.06.3c0 .1.03.2.1.28a.63.63 0 0 0 .24.16 1.8 1.8 0 0 0 .33.08h.93v-.35a1.35 1.35 0 0 0-.08-.37.7.7 0 0 0-.23-.3.83.83 0 0 0-.54-.1zM77.5 10a.5.5 0 1 1 0 1 .5.5 0 0 1 0-1zm2 0a.5.5 0 1 1 0 1 .5.5 0 0 1 0-1zm-22-1a.5.5 0 1 1 0 1 .5.5 0 0 1 0-1zm-29 0a.5.5 0 1 1 0 1 .5.5 0 0 1 0-1zm43 0a.5.5 0 1 1 0 1 .5.5 0 0 1 0-1zm-36-1a.5.5 0 1 1 0 1 .5.5 0 0 1 0-1zm49 0a.5.5 0 1 1 0 1 .5.5 0 0 1 0-1z"/></g></svg>